StickNoBillsDraft-Bold.ufo
<glyph name="numbersign" format="1">
  <advance width="888"/>
  <unicode hex="0023"/>
  <outline>
    <contour>
      <point x="347.599" y="7" type="line"/>
      <point x="196.141" y="7" type="line"/>
      <point x="223.141" y="161" type="line"/>
      <point x="82.584" y="161" type="line"/>
      <point x="113.782" y="312" type="line"/>
      <point x="250.313" y="312" type="line"/>
      <point x="263.266" y="389" type="line"/>
      <point x="117.027" y="389" type="line"/>
      <point x="144.481" y="540" type="line"/>
      <point x="290.359" y="540" type="line"/>
      <point x="317.359" y="697" type="line"/>
      <point x="468.892" y="697" type="line"/>
      <point x="440.892" y="539" type="line"/>
      <point x="516.346" y="539" type="line"/>
      <point x="543.346" y="697" type="line"/>
      <point x="694.892" y="697" type="line"/>
      <point x="666.892" y="539" type="line"/>
      <point x="804.539" y="539" type="line"/>
      <point x="780.814" y="387.908" type="line"/>
      <point x="640.576" y="388.91" type="line"/>
      <point x="626.869" y="311" type="line"/>
      <point x="769.396" y="311" type="line"/>
      <point x="746.92" y="159.911" type="line"/>
      <point x="600.584" y="160.913" type="line"/>
      <point x="573.599" y="7" type="line"/>
      <point x="423.255" y="7" type="line"/>
      <point x="449.255" y="161" type="line"/>
      <point x="374.599" y="161" type="line"/>
    </contour>
    <contour>
      <point x="489.293" y="389" type="line"/>
      <point x="414.571" y="389" type="line"/>
      <point x="400.868" y="311.832" type="line"/>
      <point x="476.313" y="311.12" type="line"/>
    </contour>
  </outline>
</glyph>
<glyph name="parenleft" format="1">
  <advance width="262"/>
  <unicode hex="0028"/>
  <outline>
    <contour>
      <point x="226.749" y="756.932" type="line"/>
      <point x="228.099" y="639.49" type="line"/>
      <point x="220.62" y="635.08" type="line" smooth="yes"/>
      <point x="186.278" y="614.827"/>
      <point x="168.956" y="589.705"/>
      <point x="168" y="520.896" type="curve"/>
      <point x="168" y="202" type="line" smooth="yes"/>
      <point x="168" y="106.658"/>
      <point x="190.405" y="82.9198"/>
      <point x="220.983" y="63.6995" type="curve" smooth="yes"/>
      <point x="228" y="59.2886" type="line"/>
      <point x="228" y="-59.4756" type="line"/>
      <point x="207.245" y="-50.8519" type="line" smooth="yes"/>
      <point x="60.3277" y="10.191"/>
      <point x="35" y="89.3017"/>
      <point x="35" y="189" type="curve" smooth="yes"/>
      <point x="35" y="510" type="line" smooth="yes"/>
      <point x="35" y="658.714"/>
      <point x="105.262" y="709.074"/>
      <point x="206.502" y="748.956" type="curve" smooth="yes"/>
    </contour>
  </outline>
</glyph>
<glyph name="asterisk" format="1">
  <advance width="394"/>
  <unicode hex="002A"/>
  <outline>
    <contour>
      <point x="246" y="463" type="line"/>
      <point x="145" y="463" type="line"/>
      <point x="145" y="535.398" type="line"/>
      <point x="88.4189" y="496.291" type="line"/>
      <point x="29.8185" y="577.759" type="line"/>
      <point x="111.013" y="632.822" type="line"/>
      <point x="28.5483" y="687.174" type="line"/>
      <point x="88.2976" y="768.262" type="line"/>
      <point x="145" y="731.572" type="line"/>
      <point x="145" y="800" type="line"/>
      <point x="246" y="800" type="line"/>
      <point x="246" y="729.591" type="line"/>
      <point x="305.697" y="768.269" type="line"/>
      <point x="365.378" y="687.274" type="line"/>
      <point x="282.675" y="631.825" type="line"/>
      <point x="364.111" y="575.662" type="line"/>
      <point x="305.505" y="494.185" type="line"/>
      <point x="246" y="536.09" type="line"/>
    </contour>
  </outline>
</glyph>
<glyph name="zero" format="1">
  <advance width="1100"/>
  <unicode hex="0030"/>
  <outline>
    <contour>
      <point x="430.458" y="697.977" type="curve" smooth="yes"/>
      <point x="449" y="698.866" type="line"/>
      <point x="449" y="552.511" type="line"/>
      <point x="435.625" y="549.823" type="line" smooth="yes"/>
      <point x="392.58" y="541.174"/>
      <point x="381.114" y="460.62"/>
      <point x="381.114" y="395.988" type="curve" smooth="yes"/>
      <point x="381.114" y="339.415" type="line" smooth="yes"/>
      <point x="388.619" y="246.526"/>
      <point x="399.584" y="155.805"/>
      <point x="451.45" y="147.253" type="curve" smooth="yes"/>
      <point x="463" y="144.636" type="line"/>
      <point x="463" y="-0.697266" type="line"/>
      <point x="447.319" y="0.015625" type="line" smooth="yes"/>
      <point x="340.993" y="3.3418"/>
      <point x="221" y="68.2266"/>
      <point x="221" y="352.835" type="curve" smooth="yes"/>
      <point x="221" y="594.023"/>
      <point x="317.206" y="692.539"/>
    </contour>
    <contour>
      <point x="484.114" y="698.866" type="line"/>
      <point x="502.656" y="697.977" type="line" smooth="yes"/>
      <point x="610.793" y="692.539"/>
      <point x="707" y="594.023"/>
      <point x="707" y="352.835" type="curve" smooth="yes"/>
      <point x="767" y="68.2266"/>
      <point x="647.007" y="3.3418"/>
      <point x="540.681" y="0.015625" type="curve" smooth="yes"/>
      <point x="525" y="-0.697266" type="line"/>
      <point x="525" y="144.636" type="line"/>
      <point x="536.55" y="147.253" type="line" smooth="yes"/>
      <point x="598.679" y="155.805"/>
      <point x="612" y="246.526"/>
      <point x="552" y="339.415" type="curve" smooth="yes"/>
      <point x="552" y="395.988" type="line" smooth="yes"/>
      <point x="552" y="460.62"/>
      <point x="540.533" y="541.174"/>
      <point x="497.488" y="549.823" type="curve" smooth="yes"/>
      <point x="484.114" y="552.511" type="line"/>
    </contour>
  </outline>
</glyph>
<glyph name="one" format="1">
  <advance width="296"/>
  <unicode hex="0031"/>
  <outline>
    <contour>
      <point x="106" y="0" type="line"/>
      <point x="106" y="463.168" type="line"/>
      <point x="30" y="405.638" type="line"/>
      <point x="30" y="635.088" type="line"/>
      <point x="115.861" y="699" type="line"/>
      <point x="266" y="699" type="line"/>
      <point x="266" y="0" type="line"/>
    </contour>
  </outline>
</glyph>
<glyph name="two" format="1">
  <advance width="540"/>
  <unicode hex="0032"/>
  <outline>
    <contour>
      <point x="44.3574" y="157" type="line"/>
      <point x="508.357" y="157" type="line"/>
      <point x="508.357" y="0" type="line"/>
      <point x="44.3574" y="0" type="line"/>
    </contour>
    <contour>
      <point x="213.914" y="698.882" type="curve" smooth="yes"/>
      <point x="233.559" y="701.014" type="line"/>
      <point x="233.559" y="543" type="line"/>
      <point x="219.12" y="543" type="line"/>
      <point x="209.142" y="539.213"/>
      <point x="177.695" y="524.434"/>
      <point x="177.695" y="480" type="curve" smooth="yes"/>
      <point x="177.695" y="461.489" type="line"/>
      <point x="24" y="493.133" type="line"/>
      <point x="25.4424" y="506.598" type="line" smooth="yes"/>
      <point x="35.0391" y="596.166"/>
      <point x="101.184" y="685.834"/>
    </contour>
    <contour>
      <point x="279.478" y="544.01" type="curve" smooth="yes"/>
      <point x="262.655" y="544.535" type="line"/>
      <point x="262.655" y="700" type="line"/>
      <point x="288.259" y="700" type="line" smooth="yes"/>
      <point x="463.478" y="700"/>
      <point x="513.301" y="563.463"/>
      <point x="514.357" y="482.098" type="curve"/>
      <point x="514.357" y="479" type="line" smooth="yes"/>
      <point x="514.357" y="368.294"/>
      <point x="457.575" y="330.44"/>
      <point x="396.994" y="287.736" type="curve" smooth="yes"/>
      <point x="317.036" y="237.856"/>
      <point x="274.06" y="206.527"/>
      <point x="237.041" y="155.9" type="curve" smooth="yes"/>
      <point x="231.995" y="149" type="line"/>
      <point x="37.3506" y="149" type="line"/>
      <point x="47.876" y="170.576" type="line" smooth="yes"/>
      <point x="109.738" y="297.396"/>
      <point x="225.118" y="357.481"/>
      <point x="257.191" y="380.447" type="curve"/>
      <point x="313.391" y="421.998"/>
      <point x="360.525" y="428.547"/>
      <point x="361.357" y="480.121" type="curve"/>
      <point x="361.357" y="482" type="line" smooth="yes"/>
      <point x="361.357" y="523.22"/>
      <point x="337.485" y="542.197"/>
    </contour>
  </outline>
</glyph>
<glyph name="six" format="1">
  <advance width="557"/>
  <unicode hex="0036"/>
  <outline>
    <contour>
      <point x="301.075" y="440" type="line"/>
      <point x="318.408" y="440" type="line" smooth="yes"/>
      <point x="461.271" y="440"/>
      <point x="531" y="335.724"/>
      <point x="531" y="216.599" type="curve" smooth="yes"/>
      <point x="531" y="88.5586"/>
      <point x="436.897" y="0.0517578"/>
      <point x="318.578" y="-0.999023" type="curve" smooth="yes"/>
      <point x="301.223" y="-1.14941" type="line"/>
      <point x="301.223" y="146.367" type="line"/>
      <point x="316.457" y="147.837" type="line" smooth="yes"/>
      <point x="348.755" y="150.953"/>
      <point x="386" y="176.542"/>
      <point x="386" y="215.629" type="curve" smooth="yes"/>
      <point x="386" y="285.791"/>
      <point x="335.598" y="294.743"/>
      <point x="315.18" y="299.278" type="curve" smooth="yes"/>
      <point x="302.483" y="302.1" type="line"/>
    </contour>
    <contour>
      <point x="396.318" y="501.56" type="line"/>
      <point x="387.869" y="513.178" type="line" smooth="yes"/>
      <point x="371.391" y="533.281"/>
      <point x="356.002" y="543"/>
      <point x="331.01" y="543" type="curve" smooth="yes"/>
      <point x="301.223" y="543" type="line"/>
      <point x="301.223" y="698" type="line"/>
      <point x="318.408" y="698" type="line" smooth="yes"/>
      <point x="410.626" y="698"/>
      <point x="470.761" y="655.261"/>
      <point x="507.9" y="592.653" type="curve" smooth="yes"/>
      <point x="515.18" y="580.384" type="line"/>
    </contour>
    <contour>
      <point x="254.375" y="696.88" type="curve" smooth="yes"/>
      <point x="273.728" y="699.028" type="line"/>
      <point x="273.728" y="552.084" type="line"/>
      <point x="258.441" y="550.683" type="line" smooth="yes"/>
      <point x="215.672" y="546.737"/>
      <point x="191.606" y="480.784"/>
      <point x="185.836" y="426.29" type="curve"/>
      <point x="206.707" y="434.714"/>
      <point x="231.137" y="440"/>
      <point x="256.544" y="440" type="curve" smooth="yes"/>
      <point x="273.728" y="440" type="line"/>
      <point x="273.728" y="292" type="line"/>
      <point x="257.572" y="292" type="line"/>
      <point x="236.811" y="287.394"/>
      <point x="195.825" y="276.098"/>
      <point x="195.825" y="213.042" type="curve" smooth="yes"/>
      <point x="195.825" y="181.825"/>
      <point x="226.141" y="149.188"/>
      <point x="258.343" y="146.373" type="curve" smooth="yes"/>
      <point x="273.728" y="145.028" type="line"/>
      <point x="273.728" y="-1" type="line"/>
      <point x="256.544" y="-1" type="line" smooth="yes"/>
      <point x="51.96" y="-1"/>
      <point x="26" y="195.216"/>
      <point x="26" y="357.585" type="curve" smooth="yes"/>
      <point x="26" y="468.933"/>
      <point x="53.9902" y="674.065"/>
    </contour>
  </outline>
</glyph>
<glyph name="seven" format="1">
  <advance width="495"/>
  <unicode hex="0037"/>
  <outline>
    <contour>
      <point x="20" y="542" type="line"/>
      <point x="20" y="698" type="line"/>
      <point x="469" y="698" type="line"/>
      <point x="469" y="551.401" type="line"/>
      <point x="464.136" y="546.942" type="line" smooth="yes"/>
      <point x="455.861" y="539.357"/>
      <point x="436.179" y="506.381"/>
      <point x="430.075" y="489.814" type="curve" smooth="yes"/>
      <point x="426.459" y="480" type="line"/>
      <point x="244.042" y="480" type="line"/>
      <point x="272.198" y="542" type="line"/>
    </contour>
    <contour>
      <point x="237.487" y="468.923" type="curve" smooth="yes"/>
      <point x="241.008" y="480" type="line"/>
      <point x="420.398" y="480" type="line"/>
      <point x="415.518" y="461.226" type="line" smooth="yes"/>
      <point x="376.674" y="311.825"/>
      <point x="348.834" y="166.627"/>
      <point x="305.792" y="13.4502" type="curve" smooth="yes"/>
      <point x="301.522" y="-0" type="line"/>
      <point x="134.3" y="0" type="line"/>
      <point x="136.086" y="16.6045" type="line" smooth="yes"/>
      <point x="153.176" y="175.438"/>
      <point x="188.049" y="313.404"/>
    </contour>
  </outline>
</glyph>
<glyph name="less" format="1">
  <advance width="414"/>
  <unicode hex="003C"/>
  <outline>
    <contour>
      <point x="399" y="524.332" type="line"/>
      <point x="399" y="360.241" type="line"/>
      <point x="243.524" y="291.337" type="line"/>
      <point x="399" y="215.365" type="line"/>
      <point x="399" y="54.6067" type="line"/>
      <point x="15" y="248.776" type="line"/>
      <point x="15" y="331.247" type="line"/>
    </contour>
  </outline>
</glyph>
<glyph name="B" format="1">
  <advance width="574"/>
  <unicode hex="0042"/>
  <outline>
    <contour>
      <point x="241.637" y="152" type="line"/>
      <point x="262.369" y="152" type="line" smooth="yes"/>
      <point x="369.784" y="152"/>
      <point x="384" y="194.48"/>
      <point x="384" y="212.555" type="curve" smooth="yes"/>
      <point x="384" y="227.816"/>
      <point x="372.906" y="274"/>
      <point x="262.369" y="274" type="curve" smooth="yes"/>
      <point x="241.637" y="274" type="line"/>
      <point x="245.129" y="426" type="line"/>
      <point x="266" y="426" type="line" smooth="yes"/>
      <point x="334.279" y="426"/>
      <point x="381.062" y="454.26"/>
      <point x="381.062" y="493.292" type="curve" smooth="yes"/>
      <point x="381.062" y="530.227"/>
      <point x="335.038" y="554.018"/>
      <point x="265.746" y="554.9" type="curve" smooth="yes"/>
      <point x="245.129" y="555.137" type="line"/>
      <point x="245.129" y="698.242" type="line"/>
      <point x="264.14" y="699.884" type="line" smooth="yes"/>
      <point x="273.362" y="701.037"/>
      <point x="282.006" y="701"/>
      <point x="290" y="701" type="curve" smooth="yes"/>
      <point x="482.08" y="701"/>
      <point x="544" y="571.105"/>
      <point x="544" y="507.268" type="curve" smooth="yes"/>
      <point x="544" y="506.23" type="line"/>
      <point x="543.089" y="425.816"/>
      <point x="515.383" y="379.686"/>
      <point x="483.556" y="351.856" type="curve"/>
      <point x="518.608" y="322.263"/>
      <point x="548" y="281.723"/>
      <point x="548" y="207.078" type="curve" smooth="yes"/>
      <point x="548" y="203.177" type="line"/>
      <point x="546.921" y="88.3506"/>
      <point x="448.695" y="-2"/>
      <point x="301.07" y="-2" type="curve" smooth="yes"/>
      <point x="287.131" y="-2"/>
      <point x="272.71" y="-0.923828"/>
      <point x="260.08" y="0.0917969" type="curve" smooth="yes"/>
      <point x="241.637" y="1.57422" type="line"/>
    </contour>
    <contour>
      <point x="26" y="0" type="line"/>
      <point x="26" y="700" type="line"/>
      <point x="210.405" y="700" type="line"/>
      <point x="208.465" y="0" type="line"/>
    </contour>
  </outline>
</glyph>
<glyph name="D" format="1">
  <advance width="542"/>
  <unicode hex="0044"/>
  <outline>
    <contour>
      <point x="272" y="0" type="curve" smooth="yes"/>
      <point x="257" y="0" type="line"/>
      <point x="257" y="163.973" type="line"/>
      <point x="271.819" y="163.973" type="line"/>
      <point x="284.113" y="164.488"/>
      <point x="341.808" y="171.759"/>
      <point x="343" y="203.438" type="curve"/>
      <point x="343" y="496.416" type="line"/>
      <point x="341.764" y="503.526"/>
      <point x="328.253" y="535.375"/>
      <point x="271.688" y="536.03" type="curve" smooth="yes"/>
      <point x="257" y="536.324" type="line"/>
      <point x="257" y="700" type="line"/>
      <point x="272" y="700" type="line" smooth="yes"/>
      <point x="456.462" y="700"/>
      <point x="514" y="562.05"/>
      <point x="514" y="496.712" type="curve" smooth="yes"/>
      <point x="514" y="203.288" type="line" smooth="yes"/>
      <point x="514" y="51.1436"/>
      <point x="366.768" y="0"/>
    </contour>
    <contour>
      <point x="219.667" y="0" type="line"/>
      <point x="32" y="0" type="line"/>
      <point x="32" y="700" type="line"/>
      <point x="219.667" y="700" type="line"/>
    </contour>
  </outline>
</glyph>
<glyph name="G" format="1">
  <advance width="553"/>
  <unicode hex="0047"/>
  <outline>
    <contour>
      <point x="316.862" y="534.582" type="curve" smooth="yes"/>
      <point x="306" y="537.699" type="line"/>
      <point x="306" y="705" type="line"/>
      <point x="321" y="705" type="line" smooth="yes"/>
      <point x="423.026" y="705"/>
      <point x="521" y="605.539"/>
      <point x="521" y="501" type="curve" smooth="yes"/>
      <point x="521" y="490.552" type="line"/>
      <point x="353" y="428.465" type="line"/>
      <point x="353" y="480" type="line" smooth="yes"/>
      <point x="353" y="494.187"/>
      <point x="352.763" y="502.568"/>
      <point x="349.198" y="511.125" type="curve"/>
      <point x="343.027" y="525.317"/>
      <point x="316.862" y="534.582"/>
    </contour>
    <contour>
      <point x="306" y="383" type="line"/>
      <point x="521" y="383" type="line"/>
      <point x="521" y="191" type="line" smooth="yes"/>
      <point x="521" y="100.122"/>
      <point x="411.98" y="-3.8916"/>
      <point x="321.183" y="-4.99902" type="curve" smooth="yes"/>
      <point x="306" y="-5.18359" type="line"/>
      <point x="306" y="166" type="line"/>
      <point x="319.492" y="166" type="line"/>
      <point x="328.304" y="169.439"/>
      <point x="349" y="184.564"/>
      <point x="349" y="205" type="curve" smooth="yes"/>
      <point x="349" y="223" type="line"/>
      <point x="306" y="223" type="line"/>
    </contour>
    <contour>
      <point x="275.394" y="-5" type="line"/>
      <point x="256.266" y="-5" type="line" smooth="yes"/>
      <point x="173.253" y="-5"/>
      <point x="26" y="49.1553"/>
      <point x="26" y="198.405" type="curve" smooth="yes"/>
      <point x="26" y="517.828" type="line"/>
      <point x="26.1123" y="518.704" type="line" smooth="yes"/>
      <point x="34.6143" y="584.985"/>
      <point x="94.2939" y="705"/>
      <point x="256.266" y="705" type="curve" smooth="yes"/>
      <point x="275.394" y="705" type="line"/>
      <point x="275.394" y="543.321" type="line"/>
      <point x="256.682" y="543.02" type="line" smooth="yes"/>
      <point x="217.444" y="542.386"/>
      <point x="206.391" y="510.858"/>
      <point x="205.257" y="503.808" type="curve"/>
      <point x="205.257" y="204.993" type="line"/>
      <point x="206.102" y="176.099"/>
      <point x="246.998" y="167.074"/>
      <point x="256.892" y="166" type="curve"/>
      <point x="275.394" y="166" type="line"/>
    </contour>
  </outline>
</glyph>
<glyph name="J" format="1">
  <advance width="555"/>
  <unicode hex="004A"/>
  <outline>
    <contour>
      <point x="257.615" y="-5" type="line"/>
      <point x="239.731" y="-5" type="line" smooth="yes"/>
      <point x="161.715" y="-5"/>
      <point x="26" y="58.3154"/>
      <point x="26" y="208" type="curve" smooth="yes"/>
      <point x="26" y="272" type="line"/>
      <point x="202.769" y="272" type="line"/>
      <point x="202.769" y="208.163" type="line"/>
      <point x="203.599" y="176.152"/>
      <point x="233.796" y="168.062"/>
      <point x="240.499" y="167" type="curve"/>
      <point x="257.615" y="167" type="line"/>
    </contour>
    <contour>
      <point x="304.115" y="-5" type="curve" smooth="yes"/>
      <point x="286.231" y="-5" type="line"/>
      <point x="286.231" y="167" type="line"/>
      <point x="303.546" y="167" type="line"/>
      <point x="314.318" y="168.227"/>
      <point x="352.225" y="177.647"/>
      <point x="353" y="205.97" type="curve"/>
      <point x="353" y="700" type="line"/>
      <point x="523" y="700" type="line"/>
      <point x="523" y="199.306" type="line" smooth="yes"/>
      <point x="523" y="50.1699"/>
      <point x="377.217" y="-5"/>
    </contour>
  </outline>
</glyph>
<glyph name="Q" format="1">
  <advance width="560"/>
  <unicode hex="0051"/>
  <outline>
    <contour>
      <point x="267.361" y="-5" type="line"/>
      <point x="249.651" y="-5" type="line" smooth="yes"/>
      <point x="172.343" y="-5"/>
      <point x="26" y="52.2363"/>
      <point x="26" y="201.284" type="curve" smooth="yes"/>
      <point x="26" y="516.946" type="line" smooth="yes"/>
      <point x="26" y="581.412"/>
      <point x="95.8633" y="705"/>
      <point x="250.831" y="705" type="curve" smooth="yes"/>
      <point x="268.542" y="705" type="line"/>
      <point x="268.542" y="541.242" type="line"/>
      <point x="251.216" y="540.936" type="line" smooth="yes"/>
      <point x="214.672" y="540.29"/>
      <point x="203.518" y="507.938"/>
      <point x="202.422" y="501.135" type="curve"/>
      <point x="202.422" y="201.284" type="line" smooth="yes"/>
      <point x="202.422" y="172.129"/>
      <point x="240.456" y="161.493"/>
      <point x="250.437" y="160.027" type="curve"/>
      <point x="267.361" y="160.027" type="line"/>
    </contour>
    <contour>
      <point x="534" y="200.834" type="line" smooth="yes"/>
      <point x="534" y="136.813"/>
      <point x="506.557" y="89.3301"/>
      <point x="469.982" y="56.3555" type="curve"/>
      <point x="526.037" y="-20.9648" type="line"/>
      <point x="389.105" y="-112.66" type="line"/>
      <point x="296.88" y="5.29297" type="line"/>
      <point x="296.88" y="160.352" type="line"/>
      <point x="313.804" y="160.352" type="line"/>
      <point x="324.787" y="161.954"/>
      <point x="362.232" y="173.033"/>
      <point x="363" y="201.74" type="curve"/>
      <point x="363" y="501.256" type="line"/>
      <point x="361.754" y="508.989"/>
      <point x="350.269" y="540.396"/>
      <point x="314.205" y="541.033" type="curve" smooth="yes"/>
      <point x="296.88" y="541.34" type="line"/>
      <point x="296.88" y="705" type="line"/>
      <point x="314.59" y="705" type="line" smooth="yes"/>
      <point x="463.181" y="705"/>
      <point x="534" y="580.412"/>
      <point x="534" y="516.778" type="curve" smooth="yes"/>
    </contour>
  </outline>
</glyph>
<glyph name="S" format="1">
  <advance width="587"/>
  <unicode hex="0053"/>
  <outline>
    <contour>
      <point x="260.899" y="699.997" type="curve" smooth="yes"/>
      <point x="276.194" y="700.297" type="line"/>
      <point x="276.194" y="548.175" type="line"/>
      <point x="265.314" y="545.193" type="line" smooth="yes"/>
      <point x="246.049" y="541.335"/>
      <point x="221.399" y="522.394"/>
      <point x="221.399" y="506.276" type="curve" smooth="yes"/>
      <point x="221.399" y="456.69"/>
      <point x="352.584" y="448.185"/>
      <point x="428.851" y="404.516" type="curve"/>
      <point x="490.153" y="369.817"/>
      <point x="564.194" y="320.382"/>
      <point x="564.194" y="214.713" type="curve" smooth="yes"/>
      <point x="564.194" y="98.7246"/>
      <point x="463.242" y="-3"/>
      <point x="346.194" y="-3" type="curve" smooth="yes"/>
      <point x="331.194" y="-3" type="line"/>
      <point x="331.194" y="148.766" type="line"/>
      <point x="344.333" y="150.341" type="line" smooth="yes"/>
      <point x="363.015" y="152.58"/>
      <point x="393.194" y="166.769"/>
      <point x="393.194" y="208.955" type="curve" smooth="yes"/>
      <point x="393.194" y="266.257"/>
      <point x="270.956" y="279.436"/>
      <point x="172.69" y="311.08" type="curve"/>
      <point x="99.1797" y="344.842"/>
      <point x="41.1943" y="394.458"/>
      <point x="41.1943" y="501.472" type="curve" smooth="yes"/>
      <point x="41.1943" y="645.071"/>
      <point x="174.054" y="698.928"/>
    </contour>
    <contour>
      <point x="331.194" y="700" type="line"/>
      <point x="346.194" y="700" type="line" smooth="yes"/>
      <point x="462.976" y="700"/>
      <point x="529.101" y="581.801"/>
      <point x="535.99" y="540.466" type="curve" smooth="yes"/>
      <point x="538.102" y="527.793" type="line"/>
      <point x="378.246" y="474.918" type="line"/>
      <point x="376.278" y="493.413" type="line" smooth="yes"/>
      <point x="372.448" y="529.41"/>
      <point x="343.104" y="538.265"/>
      <point x="342.101" y="538.569" type="curve"/>
      <point x="331.194" y="541.644" type="line"/>
    </contour>
    <contour>
      <point x="276.194" y="-3" type="line"/>
      <point x="261.194" y="-3" type="line" smooth="yes"/>
      <point x="112.788" y="-3"/>
      <point x="34.3516" y="109.205"/>
      <point x="33.1963" y="172.728" type="curve" smooth="yes"/>
      <point x="33" y="183.53" type="line"/>
      <point x="197.213" y="238.967" type="line"/>
      <point x="198.334" y="218.535" type="line" smooth="yes"/>
      <point x="200.771" y="174.13"/>
      <point x="265.128" y="156.558"/>
      <point x="266.463" y="156.044" type="curve" smooth="yes"/>
      <point x="276.194" y="152.394" type="line"/>
    </contour>
  </outline>
</glyph>
<glyph name="U" format="1">
  <advance width="572"/>
  <unicode hex="0055"/>
  <outline>
    <contour>
      <point x="274.542" y="-5" type="line"/>
      <point x="256.831" y="-5" type="line" smooth="yes"/>
      <point x="179.902" y="-5"/>
      <point x="32" y="50.0908"/>
      <point x="32" y="199.306" type="curve" smooth="yes"/>
      <point x="32" y="700" type="line"/>
      <point x="208.422" y="700" type="line"/>
      <point x="208.422" y="205.97" type="line"/>
      <point x="209.2" y="177.268"/>
      <point x="247.894" y="168.093"/>
      <point x="257.395" y="167" type="curve"/>
      <point x="274.542" y="167" type="line"/>
    </contour>
    <contour>
      <point x="320.59" y="-5" type="curve" smooth="yes"/>
      <point x="302.88" y="-5" type="line"/>
      <point x="302.88" y="167" type="line"/>
      <point x="320.027" y="167" type="line"/>
      <point x="330.693" y="168.227"/>
      <point x="368.232" y="177.647"/>
      <point x="369" y="205.97" type="curve"/>
      <point x="369" y="700" type="line"/>
      <point x="539" y="700" type="line"/>
      <point x="539" y="199.306" type="line" smooth="yes"/>
      <point x="539" y="49.25"/>
      <point x="394.145" y="-5"/>
    </contour>
  </outline>
</glyph>
<glyph name="V" format="1">
  <advance width="568"/>
  <unicode hex="0056"/>
  <outline>
    <contour>
      <point x="245.223" y="0" type="line"/>
      <point x="26" y="700" type="line"/>
      <point x="201.2" y="700" type="line"/>
      <point x="394.688" y="165.602" type="line"/>
      <point x="328.513" y="0" type="line"/>
    </contour>
    <contour>
      <point x="552.231" y="700" type="line"/>
      <point x="546.314" y="680.619" type="line" smooth="yes"/>
      <point x="506.344" y="549.715"/>
      <point x="465.349" y="410.733"/>
      <point x="423.335" y="270.689" type="curve" smooth="yes"/>
      <point x="420.129" y="260" type="line"/>
      <point x="387.75" y="260" type="line"/>
      <point x="305.079" y="499.008" type="line"/>
      <point x="376.762" y="700" type="line"/>
    </contour>
  </outline>
</glyph>
<glyph name="X" format="1">
  <advance width="524"/>
  <unicode hex="0058"/>
  <outline>
    <contour>
      <point x="330.285" y="700" type="line"/>
      <point x="499.139" y="700" type="line"/>
      <point x="369.681" y="360.622" type="line"/>
      <point x="511.36" y="0" type="line"/>
      <point x="334.189" y="0" type="line"/>
      <point x="268.68" y="138.28" type="line"/>
      <point x="203.171" y="0" type="line"/>
      <point x="26" y="0" type="line"/>
      <point x="167.68" y="360.622" type="line"/>
      <point x="38.2217" y="700" type="line"/>
      <point x="207.075" y="700" type="line"/>
      <point x="268.68" y="575.72" type="line"/>
    </contour>
  </outline>
</glyph>
<glyph name="bracketright" format="1">
  <advance width="258"/>
  <unicode hex="005D"/>
  <outline>
    <contour>
      <point x="-1" y="754" type="line"/>
      <point x="223" y="754" type="line"/>
      <point x="223" y="-51" type="line"/>
      <point x="-1" y="-51" type="line"/>
      <point x="-1" y="89" type="line"/>
      <point x="62.9187" y="89" type="line"/>
      <point x="60.0809" y="614" type="line"/>
      <point x="-1" y="614" type="line"/>
    </contour>
  </outline>
</glyph>
<glyph name="underscore" format="1">
  <advance width="510"/>
  <unicode hex="005F"/>
  <outline>
    <contour>
      <point x="495" y="-220" type="line"/>
      <point x="15" y="-220" type="line"/>
      <point x="15" y="-83" type="line"/>
      <point x="495" y="-83" type="line"/>
    </contour>
  </outline>
</glyph>
<glyph name="grave" format="1">
  <advance width="263"/>
  <unicode hex="0060"/>
  <outline>
    <contour>
      <point x="112.564" y="590" type="line"/>
      <point x="25.1558" y="772" type="line"/>
      <point x="187.787" y="772" type="line"/>
      <point x="232.089" y="590" type="line"/>
    </contour>
  </outline>
</glyph>
<glyph name="a" format="1">
  <advance width="585"/>
  <unicode hex="0061"/>
  <outline>
    <contour>
      <point x="286.421" y="389.679" type="line"/>
      <point x="286.421" y="519" type="line"/>
      <point x="306" y="519" type="line" smooth="yes"/>
      <point x="449.158" y="519"/>
      <point x="527.684" y="423.876"/>
      <point x="527.684" y="376.407" type="curve" smooth="yes"/>
      <point x="527.684" y="156.963" type="line" smooth="yes"/>
      <point x="527.684" y="151.331"/>
      <point x="532.507" y="144"/>
      <point x="542" y="144" type="curve" smooth="yes"/>
      <point x="560" y="144" type="line"/>
      <point x="560" y="1" type="line"/>
      <point x="542" y="1" type="line" smooth="yes"/>
      <point x="479.056" y="1"/>
      <point x="447.313" y="11.3887"/>
      <point x="425.695" y="26.3184" type="curve"/>
      <point x="401.036" y="10.1191"/>
      <point x="371.402" y="1"/>
      <point x="307" y="1" type="curve" smooth="yes"/>
      <point x="289" y="1" type="line"/>
      <point x="289" y="143" type="line"/>
      <point x="306.75" y="143" type="line"/>
      <point x="342.245" y="143.492"/>
      <point x="355.477" y="158.959"/>
      <point x="358" y="164.719" type="curve"/>
      <point x="358" y="218.155" type="line"/>
      <point x="281.22" y="200.851"/>
      <point x="185.922" y="188.172"/>
      <point x="175.579" y="184.584" type="curve" smooth="yes"/>
      <point x="173.629" y="183.907"/>
      <point x="170.235" y="182.097"/>
      <point x="170.235" y="177" type="curve" smooth="yes"/>
      <point x="170.235" y="164" type="line" smooth="yes"/>
      <point x="170.235" y="149.871"/>
      <point x="175.74" y="143"/>
      <point x="200.5" y="143" type="curve" smooth="yes"/>
      <point x="240" y="143" type="line"/>
      <point x="240" y="1" type="line"/>
      <point x="225" y="1" type="line" smooth="yes"/>
      <point x="91.7021" y="1"/>
      <point x="26" y="65.0938"/>
      <point x="26" y="128.609" type="curve" smooth="yes"/>
      <point x="26" y="172.091" type="line" smooth="yes"/>
      <point x="26" y="205.505"/>
      <point x="34.7881" y="243.673"/>
      <point x="82.5088" y="269.448" type="curve"/>
      <point x="141.643" y="299.482"/>
      <point x="358" y="325.92"/>
      <point x="358" y="346.019" type="curve" smooth="yes"/>
      <point x="358" y="357.361" type="line" smooth="yes"/>
      <point x="358" y="378.687"/>
      <point x="359.355" y="382.829"/>
      <point x="304.719" y="384.825" type="curve" smooth="yes"/>
      <point x="302.945" y="384.969" type="line"/>
    </contour>
    <contour>
      <point x="242.579" y="519" type="line"/>
      <point x="242.579" y="377" type="line"/>
      <point x="223.125" y="377" type="line"/>
      <point x="202.099" y="375.532"/>
      <point x="186.088" y="369.115"/>
      <point x="186.088" y="338" type="curve" smooth="yes"/>
      <point x="186.088" y="312.234" type="line"/>
      <point x="33" y="363.663" type="line"/>
      <point x="33" y="376" type="line" smooth="yes"/>
      <point x="33" y="457.975"/>
      <point x="118.649" y="519"/>
      <point x="222.118" y="519" type="curve" smooth="yes"/>
    </contour>
  </outline>
</glyph>
<glyph name="b" format="1">
  <advance width="504"/>
  <unicode hex="0062"/>
  <outline>
    <contour>
      <point x="203.75" y="0" type="line"/>
      <point x="30" y="0" type="line"/>
      <point x="30" y="699" type="line"/>
      <point x="192.826" y="699" type="line"/>
    </contour>
    <contour>
      <point x="330" y="158.555" type="curve"/>
      <point x="300" y="357.725" type="line"/>
      <point x="298.115" y="361.124"/>
      <point x="293.297" y="367.577"/>
      <point x="276.955" y="368" type="curve"/>
      <point x="215.522" y="368" type="line"/>
      <point x="215.522" y="516" type="line"/>
      <point x="276.043" y="516" type="line" smooth="yes"/>
      <point x="393.324" y="516"/>
      <point x="446.845" y="419.745"/>
      <point x="448" y="370.619" type="curve"/>
      <point x="478" y="147.429" type="line" smooth="yes"/>
      <point x="478" y="99.3184"/>
      <point x="424.484" y="0"/>
      <point x="281" y="0" type="curve" smooth="yes"/>
      <point x="233" y="0" type="line"/>
      <point x="233" y="148" type="line"/>
      <point x="281" y="148" type="line" smooth="yes"/>
      <point x="317.005" y="148"/>
      <point x="326.504" y="155.465"/>
    </contour>
  </outline>
</glyph>
<glyph name="e" format="1">
  <advance width="514"/>
  <unicode hex="0065"/>
  <outline>
    <contour>
      <point x="313" y="359.625" type="line" smooth="yes"/>
      <point x="313" y="369.219"/>
      <point x="302.073" y="372"/>
      <point x="278.778" y="372" type="curve" smooth="yes"/>
      <point x="255.556" y="372" type="line"/>
      <point x="255.556" y="516" type="line"/>
      <point x="281.222" y="516" type="line" smooth="yes"/>
      <point x="363.877" y="516"/>
      <point x="457" y="449.138"/>
      <point x="457" y="369.79" type="curve" smooth="yes"/>
      <point x="487" y="193" type="line"/>
      <point x="196" y="193" type="line"/>
      <point x="196" y="145.687" type="line"/>
      <point x="198.495" y="139.662"/>
      <point x="207.8" y="128.896"/>
      <point x="228.175" y="128.048" type="curve"/>
      <point x="248" y="128.048" type="line"/>
      <point x="248" y="0" type="line"/>
      <point x="228" y="0" type="line" smooth="yes"/>
      <point x="84.0479" y="0"/>
      <point x="26" y="97.7217"/>
      <point x="26" y="147.429" type="curve" smooth="yes"/>
      <point x="26" y="370.619" type="line"/>
      <point x="27.1689" y="420.343"/>
      <point x="85.0508" y="516"/>
      <point x="207.889" y="516" type="curve" smooth="yes"/>
      <point x="232.333" y="516" type="line"/>
      <point x="232.333" y="370" type="line"/>
      <point x="210.333" y="370" type="line" smooth="yes"/>
      <point x="186.519" y="370"/>
      <point x="184.667" y="362.769"/>
      <point x="184.667" y="359.218" type="curve" smooth="yes"/>
      <point x="184.667" y="339" type="line"/>
      <point x="313" y="339" type="line"/>
    </contour>
    <contour>
      <point x="317" y="0" type="curve" smooth="yes"/>
      <point x="296" y="0" type="line"/>
      <point x="296" y="141" type="line"/>
      <point x="316.512" y="141" type="line"/>
      <point x="342.258" y="143.016"/>
      <point x="355.811" y="157.923"/>
      <point x="358.265" y="170.807" type="curve" smooth="yes"/>
      <point x="358.345" y="171.225" type="line"/>
      <point x="363.521" y="191.93" type="line"/>
      <point x="493.876" y="143.211" type="line"/>
      <point x="486.416" y="128.292" type="line" smooth="yes"/>
      <point x="452.872" y="61.2041"/>
      <point x="405.836" y="0"/>
    </contour>
  </outline>
</glyph>
<glyph name="i" format="1">
  <advance width="229"/>
  <unicode hex="0069"/>
  <outline>
    <contour>
      <point x="114" y="703" type="curve" smooth="yes"/>
      <point x="162.328" y="703"/>
      <point x="202" y="663.328"/>
      <point x="202" y="615" type="curve" smooth="yes"/>
      <point x="202" y="567.51"/>
      <point x="162.233" y="528"/>
      <point x="114" y="528" type="curve" smooth="yes"/>
      <point x="65.7666" y="528"/>
      <point x="26" y="567.51"/>
      <point x="26" y="615" type="curve" smooth="yes"/>
      <point x="26" y="663.328"/>
      <point x="65.6719" y="703"/>
    </contour>
    <contour>
      <point x="191" y="516" type="line"/>
      <point x="191" y="0" type="line"/>
      <point x="39" y="0" type="line"/>
      <point x="39" y="516" type="line"/>
    </contour>
  </outline>
</glyph>
<glyph name="k" format="1">
  <advance width="512"/>
  <unicode hex="006B"/>
  <outline>
    <contour>
      <point x="191.199" y="264.299" type="line"/>
      <point x="191.199" y="0" type="line"/>
      <point x="30" y="0" type="line"/>
      <point x="30" y="698" type="line"/>
      <point x="191.199" y="698" type="line"/>
      <point x="191.199" y="249.716" type="line"/>
      <point x="330.175" y="514" type="line"/>
      <point x="496.146" y="514" type="line"/>
      <point x="374.434" y="257" type="line"/>
      <point x="496.146" y="-0" type="line"/>
      <point x="331.209" y="0" type="line"/>
    </contour>
  </outline>
</glyph>
<glyph name="m" format="1">
  <advance width="774"/>
  <unicode hex="006D"/>
  <outline>
    <contour>
      <point x="215.905" y="368" type="line" smooth="yes"/>
      <point x="195.55" y="368"/>
      <point x="192.278" y="359.494"/>
      <point x="191.143" y="356.667" type="curve" smooth="yes"/>
      <point x="191.143" y="0" type="line"/>
      <point x="30" y="0" type="line"/>
      <point x="30" y="370.579" type="line" smooth="yes"/>
      <point x="30" y="423.271"/>
      <point x="89.3252" y="519"/>
      <point x="215.905" y="519" type="curve" smooth="yes"/>
      <point x="241.905" y="519" type="line"/>
      <point x="241.905" y="368" type="line"/>
    </contour>
    <contour>
      <point x="590" y="0" type="line"/>
      <point x="590" y="356.741" type="line"/>
      <point x="588.658" y="359.895"/>
      <point x="584.644" y="368"/>
      <point x="564" y="368" type="curve" smooth="yes"/>
      <point x="538" y="368" type="line"/>
      <point x="538" y="519" type="line"/>
      <point x="564" y="519" type="line" smooth="yes"/>
      <point x="684.822" y="519"/>
      <point x="744" y="420.452"/>
      <point x="744" y="370.579" type="curve" smooth="yes"/>
      <point x="744" y="0" type="line"/>
    </contour>
    <contour>
      <point x="471.143" y="0" type="line"/>
      <point x="310" y="0" type="line"/>
      <point x="310" y="356.493" type="line"/>
      <point x="308.236" y="360.002"/>
      <point x="303.199" y="368"/>
      <point x="282.762" y="368" type="curve" smooth="yes"/>
      <point x="256.762" y="368" type="line"/>
      <point x="256.762" y="519" type="line"/>
      <point x="282.762" y="519" type="line" smooth="yes"/>
      <point x="328.529" y="519"/>
      <point x="360.922" y="506.696"/>
      <point x="386.812" y="489.561" type="curve"/>
      <point x="413.256" y="507.854"/>
      <point x="448.522" y="519"/>
      <point x="498.381" y="519" type="curve" smooth="yes"/>
      <point x="524.381" y="519" type="line"/>
      <point x="524.381" y="368" type="line"/>
      <point x="498.381" y="368" type="line" smooth="yes"/>
      <point x="476.717" y="368"/>
      <point x="472.424" y="359.093"/>
      <point x="471.143" y="356.379" type="curve"/>
    </contour>
  </outline>
</glyph>
<glyph name="n" format="1">
  <advance width="494"/>
  <unicode hex="006E"/>
  <outline>
    <contour>
      <point x="310" y="0" type="line"/>
      <point x="310" y="356.493" type="line"/>
      <point x="308.236" y="360.002"/>
      <point x="303.199" y="368"/>
      <point x="282.762" y="368" type="curve" smooth="yes"/>
      <point x="258" y="368" type="line"/>
      <point x="258" y="519" type="line"/>
      <point x="282.762" y="519" type="line" smooth="yes"/>
      <point x="404.748" y="519"/>
      <point x="464" y="420.499"/>
      <point x="464" y="370.579" type="curve" smooth="yes"/>
      <point x="464" y="0" type="line"/>
    </contour>
    <contour>
      <point x="218.381" y="368" type="line" smooth="yes"/>
      <point x="196.717" y="368"/>
      <point x="192.424" y="359.093"/>
      <point x="191.143" y="356.379" type="curve"/>
      <point x="191.143" y="0" type="line"/>
      <point x="30" y="0" type="line"/>
      <point x="30" y="370.579" type="line" smooth="yes"/>
      <point x="30" y="423.364"/>
      <point x="89.4736" y="519"/>
      <point x="218.381" y="519" type="curve" smooth="yes"/>
      <point x="243.143" y="519" type="line"/>
      <point x="243.143" y="368" type="line"/>
    </contour>
  </outline>
</glyph>
<glyph name="t" format="1">
  <advance width="384"/>
  <unicode hex="0074"/>
  <outline>
    <contour>
      <point x="260.174" y="171.654" type="line" smooth="yes"/>
      <point x="260.174" y="162.192"/>
      <point x="261.965" y="155.859"/>
      <point x="289.179" y="155" type="curve" smooth="yes"/>
      <point x="328.105" y="155" type="line"/>
      <point x="361.586" y="0" type="line"/>
      <point x="287.938" y="0" type="line"/>
      <point x="126.771" y="0.994141"/>
      <point x="89" y="71.0938"/>
      <point x="89" y="169.206" type="curve" smooth="yes"/>
      <point x="89" y="368" type="line"/>
      <point x="26" y="368" type="line"/>
      <point x="26" y="516" type="line"/>
      <point x="89" y="516" type="line"/>
      <point x="89" y="700" type="line"/>
      <point x="260.174" y="700" type="line"/>
      <point x="260.174" y="516" type="line"/>
      <point x="331" y="516" type="line"/>
      <point x="331" y="368" type="line"/>
      <point x="260.174" y="368" type="line"/>
    </contour>
  </outline>
</glyph>
<glyph name="u" format="1">
  <advance width="494"/>
  <unicode hex="0075"/>
  <outline>
    <contour>
      <point x="258" y="-5" type="line"/>
      <point x="258" y="146" type="line"/>
      <point x="282.762" y="146" type="line" smooth="yes"/>
      <point x="304.426" y="146"/>
      <point x="308.718" y="154.907"/>
      <point x="310" y="157.621" type="curve"/>
      <point x="310" y="514" type="line"/>
      <point x="464" y="514" type="line"/>
      <point x="464" y="143.421" type="line" smooth="yes"/>
      <point x="464" y="93.499"/>
      <point x="404.748" y="-5"/>
      <point x="282.762" y="-5" type="curve" smooth="yes"/>
    </contour>
    <contour>
      <point x="30" y="143.421" type="curve" smooth="yes"/>
      <point x="30" y="514" type="line"/>
      <point x="191.143" y="514" type="line"/>
      <point x="191.143" y="157.277" type="line"/>
      <point x="192.336" y="154.469"/>
      <point x="196.316" y="146"/>
      <point x="218.381" y="146" type="curve" smooth="yes"/>
      <point x="243.143" y="146" type="line"/>
      <point x="243.143" y="-5" type="line"/>
      <point x="218.381" y="-5" type="line" smooth="yes"/>
      <point x="89.4736" y="-5"/>
      <point x="30" y="90.6387"/>
    </contour>
  </outline>
</glyph>
<glyph name="v" format="1">
  <advance width="460"/>
  <unicode hex="0076"/>
  <outline>
    <contour>
      <point x="303.805" y="-0" type="line"/>
      <point x="213.158" y="0" type="line"/>
      <point x="16" y="514.851" type="line"/>
      <point x="189.188" y="516.08" type="line"/>
      <point x="382.136" y="127.467" type="line"/>
    </contour>
    <contour>
      <point x="252.879" y="378.709" type="line"/>
      <point x="301.54" y="516.085" type="line"/>
      <point x="470.354" y="514.847" type="line"/>
      <point x="399.41" y="178" type="line"/>
      <point x="357.348" y="178" type="line"/>
    </contour>
  </outline>
</glyph>
<glyph name="x" format="1">
  <advance width="441"/>
  <unicode hex="0078"/>
  <outline>
    <contour>
      <point x="18" y="0" type="line"/>
      <point x="138.533" y="261.794" type="line"/>
      <point x="22.043" y="516" type="line"/>
      <point x="180.824" y="516" type="line"/>
      <point x="237.791" y="420.51" type="line"/>
      <point x="293.575" y="515" type="line"/>
      <point x="453.681" y="515" type="line"/>
      <point x="338.22" y="261.755" type="line"/>
      <point x="457.69" y="0" type="line"/>
      <point x="300.207" y="0" type="line"/>
      <point x="237.885" y="104.607" type="line"/>
      <point x="175.562" y="0" type="line"/>
    </contour>
  </outline>
</glyph>
<glyph name="y" format="1">
  <advance width="443"/>
  <unicode hex="0079"/>
  <outline>
    <contour>
      <point x="28.8115" y="-182" type="line"/>
      <point x="122.354" y="115.238" type="line"/>
      <point x="0" y="513.848" type="line"/>
      <point x="168.751" y="515.085" type="line"/>
      <point x="206.055" y="414.214" type="line"/>
      <point x="206.055" y="423.859" type="line"/>
      <point x="315.632" y="113.003" type="line"/>
      <point x="196.507" y="-182" type="line"/>
    </contour>
    <contour>
      <point x="233.342" y="378.141" type="line"/>
      <point x="283.224" y="515.085" type="line"/>
      <point x="452.828" y="513.842" type="line"/>
      <point x="339.783" y="178" type="line"/>
      <point x="301.659" y="178" type="line"/>
    </contour>
  </outline>
</glyph>
<glyph name="braceright" format="1">
  <advance width="407"/>
  <unicode hex="007D"/>
  <outline>
    <contour>
      <point x="100" y="750" type="line" smooth="yes"/>
      <point x="213.535" y="750"/>
      <point x="310" y="722.474"/>
      <point x="310" y="504" type="curve" smooth="yes"/>
      <point x="310" y="408.197" type="line"/>
      <point x="310.72" y="380.831"/>
      <point x="324.19" y="377.921"/>
      <point x="362.769" y="361.846" type="curve" smooth="yes"/>
      <point x="392.165" y="349.598" type="line"/>
      <point x="364.001" y="334.734" type="line" smooth="yes"/>
      <point x="323.824" y="313.53"/>
      <point x="310" y="310.414"/>
      <point x="310" y="290" type="curve" smooth="yes"/>
      <point x="310" y="192" type="line" smooth="yes"/>
      <point x="310" y="-38.3497"/>
      <point x="211.162" y="-53"/>
      <point x="118" y="-53" type="curve" smooth="yes"/>
      <point x="85" y="-53" type="line"/>
      <point x="85" y="76" type="line"/>
      <point x="100" y="76" type="line" smooth="yes"/>
      <point x="141.202" y="76"/>
      <point x="153" y="85.3744"/>
      <point x="153" y="208" type="curve" smooth="yes"/>
      <point x="153" y="304" type="line" smooth="yes"/>
      <point x="153" y="322.542"/>
      <point x="164.478" y="337.811"/>
      <point x="176.047" y="346.605" type="curve"/>
      <point x="164.127" y="354.197"/>
      <point x="153" y="366.164"/>
      <point x="153" y="383" type="curve" smooth="yes"/>
      <point x="153" y="468.939" type="line"/>
      <point x="151.957" y="596.145"/>
      <point x="152.566" y="620"/>
      <point x="100" y="620" type="curve" smooth="yes"/>
      <point x="85" y="620" type="line"/>
      <point x="85" y="750" type="line"/>
    </contour>
  </outline>
</glyph>
<glyph name="asciitilde" format="1">
  <advance width="568"/>
  <unicode hex="007E"/>
  <outline>
    <contour>
      <point x="525.785" y="268.178" type="line" smooth="yes"/>
      <point x="468.192" y="233.211"/>
      <point x="421.378" y="220"/>
      <point x="381" y="220" type="curve" smooth="yes"/>
      <point x="280.19" y="220"/>
      <point x="229.082" y="293"/>
      <point x="157" y="293" type="curve" smooth="yes"/>
      <point x="130.134" y="293"/>
      <point x="98.198" y="285.152"/>
      <point x="58.1114" y="259.382" type="curve" smooth="yes"/>
      <point x="35" y="244.525" type="line"/>
      <point x="35" y="413.657" type="line"/>
      <point x="42.4958" y="417.988" type="line" smooth="yes"/>
      <point x="89.2663" y="445.011"/>
      <point x="129.007" y="455"/>
      <point x="163" y="455" type="curve" smooth="yes"/>
      <point x="259.43" y="455"/>
      <point x="308.319" y="382"/>
      <point x="387" y="382" type="curve" smooth="yes"/>
      <point x="418.445" y="382"/>
      <point x="457.684" y="392.719"/>
      <point x="510.178" y="424.799" type="curve" smooth="yes"/>
      <point x="533" y="438.746" type="line"/>
      <point x="533" y="272.559" type="line"/>
    </contour>
  </outline>
</glyph>
<glyph name="sterling" format="1">
  <advance width="520"/>
  <unicode hex="00A3"/>
  <outline>
    <contour>
      <point x="356.724" y="515.395" type="line" smooth="yes"/>
      <point x="347.314" y="544.568"/>
      <point x="331.273" y="569"/>
      <point x="297" y="569" type="curve" smooth="yes"/>
      <point x="271.933" y="569"/>
      <point x="254" y="560.566"/>
      <point x="254" y="517" type="curve" smooth="yes"/>
      <point x="254" y="411" type="line"/>
      <point x="393" y="411" type="line"/>
      <point x="393" y="274" type="line"/>
      <point x="253" y="274" type="line"/>
      <point x="253" y="123" type="line"/>
      <point x="477" y="123" type="line"/>
      <point x="477" y="-15" type="line"/>
      <point x="91" y="-15" type="line"/>
      <point x="91" y="273" type="line"/>
      <point x="35" y="273" type="line"/>
      <point x="35" y="410" type="line"/>
      <point x="91" y="410" type="line"/>
      <point x="91" y="514" type="line" smooth="yes"/>
      <point x="91" y="622.728"/>
      <point x="151.735" y="720"/>
      <point x="291" y="720" type="curve" smooth="yes"/>
      <point x="293" y="720" type="line" smooth="yes"/>
      <point x="322.74" y="720"/>
      <point x="349.069" y="714.575"/>
      <point x="371.72" y="704.868" type="curve"/>
      <point x="434.503" y="679.971"/>
      <point x="472.645" y="625.61"/>
      <point x="484.621" y="573.351" type="curve" smooth="yes"/>
      <point x="487.244" y="561.905" type="line"/>
      <point x="362.108" y="498.705" type="line"/>
    </contour>
  </outline>
</glyph>
<glyph name="currency" format="1">
  <advance width="656"/>
  <unicode hex="00A4"/>
  <outline>
    <contour>
      <point x="336" y="462" type="line"/>
      <point x="336" y="610" type="line"/>
      <point x="357" y="610" type="line" smooth="yes"/>
      <point x="398.496" y="610"/>
      <point x="432.574" y="595.269"/>
      <point x="458.756" y="574.896" type="curve"/>
      <point x="535.289" y="643.266" type="line"/>
      <point x="627.186" y="538.606" type="line"/>
      <point x="525" y="449.193" type="line"/>
      <point x="525" y="281.707" type="line"/>
      <point x="626.067" y="191.278" type="line"/>
      <point x="535.382" y="87.8209" type="line"/>
      <point x="460.032" y="154.007" type="line"/>
      <point x="432.629" y="131.868"/>
      <point x="399.151" y="118"/>
      <point x="357" y="118" type="curve" smooth="yes"/>
      <point x="336" y="118" type="line"/>
      <point x="336" y="262" type="line"/>
      <point x="356.758" y="262" type="line"/>
      <point x="374.112" y="262.56"/>
      <point x="377.176" y="272.516"/>
      <point x="378" y="275.272" type="curve"/>
      <point x="378" y="449.823" type="line"/>
      <point x="376.916" y="453.233"/>
      <point x="373.674" y="462"/>
      <point x="357" y="462" type="curve" smooth="yes"/>
    </contour>
    <contour>
      <point x="28.8143" y="538.606" type="line"/>
      <point x="120.645" y="643.191" type="line"/>
      <point x="198.215" y="574.807" type="line"/>
      <point x="226.006" y="596.191"/>
      <point x="261.013" y="610"/>
      <point x="304" y="610" type="curve" smooth="yes"/>
      <point x="325" y="610" type="line"/>
      <point x="325" y="462" type="line"/>
      <point x="304" y="462" type="line" smooth="yes"/>
      <point x="284.832" y="462"/>
      <point x="281.876" y="452.543"/>
      <point x="281" y="450.19" type="curve"/>
      <point x="281" y="277.83" type="line"/>
      <point x="282.548" y="274.396"/>
      <point x="287.336" y="266"/>
      <point x="304" y="266" type="curve" smooth="yes"/>
      <point x="325" y="266" type="line"/>
      <point x="325" y="118" type="line"/>
      <point x="304" y="118" type="line" smooth="yes"/>
      <point x="259.74" y="118"/>
      <point x="223.128" y="133.926"/>
      <point x="196.994" y="155.014" type="curve"/>
      <point x="120.627" y="87.8105" type="line"/>
      <point x="29.9329" y="191.278" type="line"/>
      <point x="131" y="281.707" type="line"/>
      <point x="131" y="449.193" type="line"/>
    </contour>
  </outline>
</glyph>
<glyph name="brokenbar" format="1">
  <advance width="222"/>
  <unicode hex="00A6"/>
  <outline>
    <contour>
      <point x="35" y="769" type="line"/>
      <point x="187" y="769" type="line"/>
      <point x="187" y="384" type="line"/>
      <point x="35" y="384" type="line"/>
    </contour>
    <contour>
      <point x="35" y="236" type="line"/>
      <point x="187" y="236" type="line"/>
      <point x="187" y="-149" type="line"/>
      <point x="35" y="-149" type="line"/>
    </contour>
  </outline>
</glyph>
<glyph name="dieresis" format="1">
  <advance width="320"/>
  <unicode hex="00A8"/>
  <outline>
    <contour>
      <point x="-15" y="678" type="curve" smooth="yes"/>
      <point x="-15" y="728.011"/>
      <point x="24.5327" y="769"/>
      <point x="75" y="769" type="curve" smooth="yes"/>
      <point x="114.831" y="769"/>
      <point x="147.851" y="743.467"/>
      <point x="160" y="708.118" type="curve"/>
      <point x="172.149" y="743.467"/>
      <point x="205.169" y="769"/>
      <point x="245" y="769" type="curve" smooth="yes"/>
      <point x="295.467" y="769"/>
      <point x="335" y="728.011"/>
      <point x="335" y="678" type="curve" smooth="yes"/>
      <point x="335" y="627.8"/>
      <point x="295.2" y="588"/>
      <point x="245" y="588" type="curve" smooth="yes"/>
      <point x="205.349" y="588"/>
      <point x="172.187" y="612.83"/>
      <point x="160" y="648.003" type="curve"/>
      <point x="147.813" y="612.83"/>
      <point x="114.651" y="588"/>
      <point x="75" y="588" type="curve" smooth="yes"/>
      <point x="24.8002" y="588"/>
      <point x="-15" y="627.8"/>
    </contour>
  </outline>
</glyph>
<glyph name="ordfeminine" format="1">
  <advance width="227"/>
  <unicode hex="00AA"/>
  <outline>
    <contour>
      <point x="120" y="456" type="curve" smooth="yes"/>
      <point x="97" y="456" type="line" smooth="yes"/>
      <point x="49.5307" y="456"/>
      <point x="13" y="482.481"/>
      <point x="13" y="520" type="curve" smooth="yes"/>
      <point x="13" y="551" type="line" smooth="yes"/>
      <point x="13" y="569.468"/>
      <point x="20.1713" y="586.063"/>
      <point x="42.383" y="598.923" type="curve" smooth="yes"/>
      <point x="49.4969" y="603.191"/>
      <point x="59.3848" y="607.168"/>
      <point x="69.7718" y="610.878" type="curve"/>
      <point x="16" y="631.728" type="line"/>
      <point x="16" y="644" type="line" smooth="yes"/>
      <point x="16" y="686.969"/>
      <point x="58.787" y="716"/>
      <point x="96" y="716" type="curve" smooth="yes"/>
      <point x="101" y="716" type="line"/>
      <point x="114" y="716" type="line"/>
      <point x="119" y="716" type="line" smooth="yes"/>
      <point x="174.937" y="716"/>
      <point x="203" y="666.4"/>
      <point x="203" y="639" type="curve" smooth="yes"/>
      <point x="203" y="538" type="line"/>
      <point x="215" y="538" type="line"/>
      <point x="215" y="456" type="line"/>
      <point x="197" y="456" type="line" smooth="yes"/>
      <point x="182.323" y="456"/>
      <point x="168.184" y="460.235"/>
      <point x="158.912" y="465.212" type="curve"/>
      <point x="145.547" y="458.218"/>
      <point x="134.627" y="456"/>
    </contour>
    <contour>
      <point x="99" y="538" type="curve" smooth="yes"/>
      <point x="119" y="538" type="line"/>
      <point x="119" y="546.838" type="line"/>
      <point x="107.248" y="543.078"/>
      <point x="95.4879" y="539.894"/>
      <point x="90.0825" y="538.435" type="curve"/>
      <point x="92.8965" y="538.435"/>
      <point x="96.0502" y="538"/>
    </contour>
    <contour>
      <point x="96.9902" y="634" type="line" smooth="yes"/>
      <point x="96.4649" y="633.911"/>
      <point x="96.1369" y="633.809"/>
      <point x="95.9693" y="633.756" type="curve" smooth="yes"/>
      <point x="95.6034" y="632.95"/>
      <point x="95" y="631.075"/>
      <point x="95" y="627" type="curve" smooth="yes"/>
      <point x="95" y="619.449" type="line"/>
      <point x="105.66" y="623.067"/>
      <point x="114.672" y="626.383"/>
      <point x="119" y="629.427" type="curve"/>
      <point x="119" y="631" type="line" smooth="yes"/>
      <point x="119" y="632.296"/>
      <point x="118.944" y="633.946"/>
      <point x="118.944" y="633.946" type="curve" smooth="yes"/>
      <point x="117.949" y="634.05"/>
      <point x="118.929" y="633.967"/>
      <point x="117.931" y="634.038" type="curve" smooth="yes"/>
      <point x="116.048" y="634.173" type="line"/>
      <point x="114" y="634.855" type="line"/>
      <point x="114" y="634" type="line"/>
    </contour>
    <contour>
      <point x="11" y="445" type="line"/>
      <point x="216" y="445" type="line"/>
      <point x="216" y="347" type="line"/>
      <point x="11" y="347" type="line"/>
    </contour>
  </outline>
</glyph>
<glyph name="guillemotleft" format="1">
  <advance width="475"/>
  <unicode hex="00AB"/>
  <outline>
    <contour>
      <point x="464" y="506.745" type="line"/>
      <point x="464" y="344.022" type="line"/>
      <point x="385.704" y="291.238" type="line"/>
      <point x="464" y="231.416" type="line"/>
      <point x="464" y="72.142" type="line"/>
      <point x="253" y="229.142" type="line"/>
      <point x="253" y="72.142" type="line"/>
      <point x="12" y="251.464" type="line"/>
      <point x="12" y="328.564" type="line"/>
      <point x="253" y="506.745" type="line"/>
      <point x="253" y="350.745" type="line"/>
    </contour>
    <contour>
      <point x="223" y="254.338" type="line"/>
      <point x="223" y="323.797" type="line"/>
      <point x="174.704" y="291.238" type="line"/>
    </contour>
  </outline>
</glyph>
<glyph name="registered" format="1">
  <advance width="404"/>
  <unicode hex="00AE"/>
  <outline>
    <contour>
      <point x="205" y="496" type="line"/>
      <point x="205" y="415" type="line"/>
      <point x="167.938" y="415" type="line" smooth="yes"/>
      <point x="175.627" y="412.735"/>
      <point x="183.585" y="411.358"/>
      <point x="191.692" y="410.984" type="curve" smooth="yes"/>
      <point x="201" y="410.554" type="line"/>
      <point x="210.308" y="410.984" type="line" smooth="yes"/>
      <point x="219.63" y="411.414"/>
      <point x="228.775" y="413.142"/>
      <point x="237.557" y="416" type="curve" smooth="yes"/>
      <point x="220" y="416" type="line"/>
      <point x="220" y="481" type="line" smooth="yes"/>
      <point x="220" y="497.292"/>
      <point x="219.889" y="496"/>
      <point x="206" y="496" type="curve" smooth="yes"/>
    </contour>
    <contour>
      <point x="191" y="642" type="line"/>
      <point x="191" y="643" type="line"/>
      <point x="206" y="643" type="line" smooth="yes"/>
      <point x="254.933" y="643"/>
      <point x="285" y="612.213"/>
      <point x="285" y="570" type="curve" smooth="yes"/>
      <point x="285" y="554.136"/>
      <point x="281.015" y="539.925"/>
      <point x="272.167" y="528.72" type="curve"/>
      <point x="279.956" y="516.984"/>
      <point x="284.044" y="505.925"/>
      <point x="284.962" y="493.069" type="curve" smooth="yes"/>
      <point x="285" y="492.535" type="line"/>
      <point x="285" y="445.961" type="line"/>
      <point x="305.012" y="466.606"/>
      <point x="318.113" y="494.625"/>
      <point x="319" y="525.217" type="curve" smooth="yes"/>
      <point x="319" y="527" type="line" smooth="yes"/>
      <point x="319" y="599.857"/>
      <point x="261.354" y="647"/>
      <point x="211" y="647" type="curve" smooth="yes"/>
      <point x="210" y="647" type="line"/>
      <point x="196" y="647" type="line"/>
      <point x="195" y="647" type="line" smooth="yes"/>
      <point x="185.287" y="647"/>
      <point x="175.252" y="645.29"/>
      <point x="165.376" y="642" type="curve" smooth="yes"/>
    </contour>
    <contour>
      <point x="205" y="576" type="line"/>
      <point x="205" y="562" type="line"/>
      <point x="210" y="562" type="line" smooth="yes"/>
      <point x="219.56" y="562"/>
      <point x="219" y="564.582"/>
      <point x="219" y="568" type="curve" smooth="yes"/>
      <point x="219" y="573.457"/>
      <point x="216.924" y="576"/>
      <point x="210" y="576" type="curve" smooth="yes"/>
    </contour>
    <contour>
      <point x="136" y="430.499" type="curve"/>
      <point x="136" y="627.026" type="line"/>
      <point x="107.186" y="606.654"/>
      <point x="85" y="571.605"/>
      <point x="85" y="526.109" type="curve" smooth="yes"/>
      <point x="85.5715" y="486.678"/>
      <point x="106.247" y="451.342"/>
    </contour>
    <contour>
      <point x="196" y="718" type="line"/>
      <point x="196" y="718.229" type="line"/>
      <point x="211.227" y="717.998" type="line" smooth="yes"/>
      <point x="284.382" y="716.89"/>
      <point x="389" y="650.563"/>
      <point x="389" y="528" type="curve" smooth="yes"/>
      <point x="389" y="523" type="line" smooth="yes"/>
      <point x="389" y="413.712"/>
      <point x="295.644" y="342.286"/>
      <point x="211.584" y="339.011" type="curve" smooth="yes"/>
      <point x="207.365" y="338.847" type="line" smooth="yes"/>
      <point x="207.365" y="338.834"/>
      <point x="207.366" y="338.822"/>
      <point x="207.366" y="338.809" type="curve"/>
      <point x="207.12" y="338.809"/>
      <point x="206.874" y="338.818"/>
      <point x="206.628" y="338.818" type="curve" smooth="yes"/>
      <point x="196" y="338.404" type="line"/>
      <point x="196" y="338.949" type="line"/>
      <point x="191.815" y="339.001" type="line" smooth="yes"/>
      <point x="102.221" y="340.107"/>
      <point x="15" y="423.501"/>
      <point x="15" y="523" type="curve" smooth="yes"/>
      <point x="15" y="525" type="line" smooth="yes"/>
      <point x="15" y="658.779"/>
      <point x="126.132" y="718"/>
      <point x="193" y="718" type="curve" smooth="yes"/>
    </contour>
  </outline>
</glyph>
<glyph name="uni00B3" format="1">
  <advance width="247"/>
  <unicode hex="00B3"/>
  <outline>
    <contour>
      <point x="82.5695" y="602.813" type="line"/>
      <point x="4.76832" y="649.194" type="line"/>
      <point x="15.3017" y="664.994" type="line" smooth="yes"/>
      <point x="33.2783" y="694.368"/>
      <point x="63.4028" y="716"/>
      <point x="104" y="716" type="curve" smooth="yes"/>
      <point x="110" y="716" type="line"/>
      <point x="122" y="716" type="line"/>
      <point x="128.125" y="716" type="line" smooth="yes"/>
      <point x="197.523" y="714.843"/>
      <point x="234" y="657.429"/>
      <point x="234" y="616" type="curve" smooth="yes"/>
      <point x="234" y="584.528"/>
      <point x="226.577" y="561.693"/>
      <point x="215.715" y="546.945" type="curve"/>
      <point x="227.582" y="531.4"/>
      <point x="236" y="510.795"/>
      <point x="236" y="482" type="curve" smooth="yes"/>
      <point x="236" y="415.656"/>
      <point x="173.837" y="377"/>
      <point x="131" y="377" type="curve" smooth="yes"/>
      <point x="122" y="377" type="line"/>
      <point x="111" y="377" type="line"/>
      <point x="104" y="377" type="line" smooth="yes"/>
      <point x="64.4726" y="377"/>
      <point x="32.2844" y="394.76"/>
      <point x="15.0188" y="428.43" type="curve"/>
      <point x="4.76832" y="443.806" type="line"/>
      <point x="82.5695" y="490.187" type="line"/>
      <point x="92.6031" y="475.137" type="line" smooth="yes"/>
      <point x="95.2042" y="470.975"/>
      <point x="96.2404" y="469.699"/>
      <point x="105.246" y="468.948" type="curve" smooth="yes"/>
      <point x="107.038" y="468.799" type="line"/>
      <point x="112.434" y="467" type="line"/>
      <point x="129" y="467" type="line" smooth="yes"/>
      <point x="134.896" y="467"/>
      <point x="142" y="473.607"/>
      <point x="142" y="483" type="curve" smooth="yes"/>
      <point x="142" y="497.982"/>
      <point x="149.226" y="501"/>
      <point x="101" y="501" type="curve" smooth="yes"/>
      <point x="82" y="501" type="line"/>
      <point x="82" y="592" type="line"/>
      <point x="101" y="592" type="line" smooth="yes"/>
      <point x="149.09" y="592"/>
      <point x="142" y="595.991"/>
      <point x="142" y="612" type="curve" smooth="yes"/>
      <point x="142" y="622.863"/>
      <point x="135.571" y="625"/>
      <point x="130" y="625" type="curve" smooth="yes"/>
      <point x="122" y="625" type="line"/>
      <point x="110" y="625" type="line"/>
      <point x="104.672" y="625" type="line" smooth="yes"/>
      <point x="97.0219" y="624.17"/>
      <point x="95.6567" y="622.749"/>
      <point x="92.6031" y="617.863" type="curve" smooth="yes"/>
    </contour>
  </outline>
</glyph>
<glyph name="paragraph" format="1">
  <advance width="444"/>
  <unicode hex="00B6"/>
  <outline>
    <contour>
      <point x="293" y="720" type="line"/>
      <point x="293" y="-20" type="line"/>
      <point x="180" y="-20" type="line"/>
      <point x="180" y="314.492" type="line"/>
      <point x="74.4025" y="321.904"/>
      <point x="11" y="402.668"/>
      <point x="11" y="517" type="curve" smooth="yes"/>
      <point x="11" y="623.174"/>
      <point x="82.9789" y="720"/>
      <point x="195" y="720" type="curve" smooth="yes"/>
    </contour>
    <contour>
      <point x="433" y="720" type="line"/>
      <point x="433" y="-20" type="line"/>
      <point x="320" y="-20" type="line"/>
      <point x="320" y="720" type="line"/>
    </contour>
  </outline>
</glyph>
<glyph name="uni00B9" format="1">
  <advance width="186"/>
  <unicode hex="00B9"/>
  <outline>
    <contour>
      <point x="78" y="579.085" type="line"/>
      <point x="45" y="553.085" type="line"/>
      <point x="45" y="680.373" type="line"/>
      <point x="89.8866" y="715" type="line"/>
      <point x="176" y="715" type="line"/>
      <point x="176" y="376" type="line"/>
      <point x="78" y="376" type="line"/>
    </contour>
  </outline>
</glyph>
<glyph name="guillemotright" format="1">
  <advance width="414"/>
  <unicode hex="00BB"/>
  <outline>
    <contour>
      <point x="222" y="506.745" type="line"/>
      <point x="463" y="328.564" type="line"/>
      <point x="463" y="251.464" type="line"/>
      <point x="222" y="72.142" type="line"/>
      <point x="222" y="229.142" type="line"/>
      <point x="11" y="72.142" type="line"/>
      <point x="11" y="231.416" type="line"/>
      <point x="89.296" y="291.238" type="line"/>
      <point x="11" y="344.022" type="line"/>
      <point x="11" y="506.745" type="line"/>
      <point x="222" y="350.745" type="line"/>
    </contour>
    <contour>
      <point x="252" y="254.338" type="line"/>
      <point x="300.296" y="291.238" type="line"/>
      <point x="252" y="323.797" type="line"/>
    </contour>
  </outline>
</glyph>
<glyph name="onequarter" format="1">
  <advance width="560"/>
  <unicode hex="00BC"/>
  <outline>
    <contour>
      <point x="-0.803513" y="-17" type="line"/>
      <point x="449.606" y="717" type="line"/>
      <point x="560.577" y="717" type="line"/>
      <point x="117.466" y="-17" type="line"/>
    </contour>
    <contour>
      <point x="503" y="152" type="line"/>
      <point x="503" y="56" type="line"/>
      <point x="476" y="56" type="line"/>
      <point x="476" y="-16" type="line"/>
      <point x="378" y="-16" type="line"/>
      <point x="378" y="56" type="line"/>
      <point x="255" y="56" type="line"/>
      <point x="255" y="141.055" type="line"/>
      <point x="378" y="351.912" type="line"/>
      <point x="378" y="367" type="line"/>
      <point x="476" y="367" type="line"/>
      <point x="476" y="152" type="line"/>
    </contour>
    <contour>
      <point x="98" y="566.047" type="line"/>
      <point x="60" y="536.047" type="line"/>
      <point x="60" y="678.238" type="line"/>
      <point x="108.765" y="717" type="line"/>
      <point x="196" y="717" type="line"/>
      <point x="196" y="334" type="line"/>
      <point x="98" y="334" type="line"/>
    </contour>
    <contour>
      <point x="378" y="162.335" type="line"/>
      <point x="372.017" y="152" type="line"/>
      <point x="378" y="152" type="line"/>
    </contour>
  </outline>
</glyph>
<glyph name="onehalf" format="1">
  <advance width="581"/>
  <unicode hex="00BD"/>
  <outline>
    <contour>
      <point x="99" y="566.047" type="line"/>
      <point x="61" y="536.047" type="line"/>
      <point x="61" y="678.121" type="line"/>
      <point x="108.658" y="717" type="line"/>
      <point x="197" y="717" type="line"/>
      <point x="197" y="334" type="line"/>
      <point x="99" y="334" type="line"/>
    </contour>
    <contour>
      <point x="566" y="80" type="line"/>
      <point x="566" y="-16" type="line"/>
      <point x="331" y="-16" type="line"/>
      <point x="331" y="77" type="line"/>
      <point x="323.729" y="77" type="line"/>
      <point x="335.54" y="100.621" type="line" smooth="yes"/>
      <point x="367.336" y="166.333"/>
      <point x="421.845" y="197.486"/>
      <point x="434.538" y="207.639" type="curve" smooth="yes"/>
      <point x="462.504" y="230.743"/>
      <point x="475" y="229.954"/>
      <point x="475" y="251" type="curve" smooth="yes"/>
      <point x="475" y="266.521"/>
      <point x="469.98" y="271.967"/>
      <point x="448.766" y="273" type="curve" smooth="yes"/>
      <point x="439" y="273" type="line"/>
      <point x="433" y="273" type="line"/>
      <point x="425.892" y="273" type="line" smooth="yes"/>
      <point x="421.868" y="270.297"/>
      <point x="415" y="264.736"/>
      <point x="415" y="250" type="curve" smooth="yes"/>
      <point x="415" y="229.589" type="line"/>
      <point x="314.856" y="250.253" type="line"/>
      <point x="323.444" y="267.428" type="line"/>
      <point x="330.168" y="315.058"/>
      <point x="364.373" y="359.196"/>
      <point x="417.511" y="367.526" type="curve"/>
      <point x="439" y="378.271" type="line"/>
      <point x="439" y="369" type="line"/>
      <point x="453" y="369" type="line" smooth="yes"/>
      <point x="542.326" y="369"/>
      <point x="567.898" y="294.182"/>
      <point x="569" y="251.192" type="curve" smooth="yes"/>
      <point x="569" y="190.459"/>
      <point x="537.541" y="167.669"/>
      <point x="507.66" y="146.752" type="curve" smooth="yes"/>
      <point x="472.767" y="121.828"/>
      <point x="455.99" y="108.399"/>
      <point x="440.555" y="84.7913" type="curve" smooth="yes"/>
      <point x="439.705" y="83.4915" type="line"/>
      <point x="436.213" y="80" type="line"/>
    </contour>
    <contour>
      <point x="-0.803513" y="-17" type="line"/>
      <point x="449.606" y="717" type="line"/>
      <point x="560.577" y="717" type="line"/>
      <point x="117.466" y="-17" type="line"/>
    </contour>
  </outline>
</glyph>
<glyph name="threequarters" format="1">
  <advance width="584"/>
  <unicode hex="00BE"/>
  <outline>
    <contour>
      <point x="23.1965" y="-17" type="line"/>
      <point x="473.606" y="717" type="line"/>
      <point x="584.577" y="717" type="line"/>
      <point x="141.466" y="-17" type="line"/>
    </contour>
    <contour>
      <point x="527" y="152" type="line"/>
      <point x="527" y="56" type="line"/>
      <point x="500" y="56" type="line"/>
      <point x="500" y="-16" type="line"/>
      <point x="402" y="-16" type="line"/>
      <point x="402" y="56" type="line"/>
      <point x="279" y="56" type="line"/>
      <point x="279" y="141.055" type="line"/>
      <point x="402" y="351.912" type="line"/>
      <point x="402" y="367" type="line"/>
      <point x="500" y="367" type="line"/>
      <point x="500" y="152" type="line"/>
    </contour>
    <contour>
      <point x="88.2296" y="594.918" type="line"/>
      <point x="6.32209" y="643.185" type="line"/>
      <point x="13.8588" y="658.259" type="line"/>
      <point x="14.1782" y="658.785" type="line" smooth="yes"/>
      <point x="33.5165" y="690.636"/>
      <point x="68.3504" y="715"/>
      <point x="114" y="715" type="curve" smooth="yes"/>
      <point x="125" y="715" type="line"/>
      <point x="125" y="737.213" type="line"/>
      <point x="147.532" y="714.682" type="line"/>
      <point x="221.069" y="709.085"/>
      <point x="258" y="648.135"/>
      <point x="258" y="604" type="curve" smooth="yes"/>
      <point x="258" y="566.035"/>
      <point x="249.18" y="540.472"/>
      <point x="236.158" y="524.655" type="curve"/>
      <point x="250.529" y="507.36"/>
      <point x="260" y="484.009"/>
      <point x="260" y="450" type="curve" smooth="yes"/>
      <point x="260" y="376.863"/>
      <point x="192.136" y="333"/>
      <point x="144" y="333" type="curve" smooth="yes"/>
      <point x="129" y="333" type="line"/>
      <point x="126" y="333" type="line"/>
      <point x="113" y="333" type="line" smooth="yes"/>
      <point x="70.1096" y="333"/>
      <point x="34.8434" y="351.449"/>
      <point x="14.7211" y="389.066" type="curve"/>
      <point x="1.69731" y="402.089" type="line"/>
      <point x="84.3926" y="450.821" type="line"/>
      <point x="94.5353" y="440.678" type="line"/>
      <point x="95.2885" y="439.602" type="line" smooth="yes"/>
      <point x="100.243" y="432.524"/>
      <point x="104.795" y="429.811"/>
      <point x="113.563" y="429" type="curve" smooth="yes"/>
      <point x="129" y="429" type="line"/>
      <point x="129" y="427" type="line"/>
      <point x="142" y="427" type="line" smooth="yes"/>
      <point x="152.875" y="427"/>
      <point x="162" y="437.421"/>
      <point x="162" y="450" type="curve" smooth="yes"/>
      <point x="162" y="469.607"/>
      <point x="164.728" y="477"/>
      <point x="108" y="477" type="curve" smooth="yes"/>
      <point x="93" y="477" type="line"/>
      <point x="93" y="572" type="line"/>
      <point x="109" y="572" type="line" smooth="yes"/>
      <point x="166.031" y="572"/>
      <point x="162" y="579.703"/>
      <point x="162" y="600" type="curve" smooth="yes"/>
      <point x="162" y="616.243"/>
      <point x="150.851" y="621"/>
      <point x="143" y="621" type="curve" smooth="yes"/>
      <point x="129" y="621" type="line"/>
      <point x="129" y="620" type="line"/>
      <point x="114" y="620" type="line" smooth="yes"/>
      <point x="104.854" y="620"/>
      <point x="100.169" y="615.903"/>
      <point x="95.8884" y="610.236" type="curve" smooth="yes"/>
    </contour>
    <contour>
      <point x="402" y="162.335" type="line"/>
      <point x="396.017" y="152" type="line"/>
      <point x="402" y="152" type="line"/>
    </contour>
  </outline>
</glyph>
<glyph name="Eth" format="1">
  <advance width="591"/>
  <unicode hex="00D0"/>
  <outline>
    <contour>
      <point x="323" y="0" type="curve" smooth="yes"/>
      <point x="308" y="0" type="line"/>
      <point x="308" y="163.973" type="line"/>
      <point x="322.819" y="163.973" type="line"/>
      <point x="335.113" y="164.488"/>
      <point x="392.808" y="171.759"/>
      <point x="394" y="203.438" type="curve"/>
      <point x="394" y="496.416" type="line"/>
      <point x="392.764" y="503.526"/>
      <point x="379.253" y="535.375"/>
      <point x="322.688" y="536.03" type="curve" smooth="yes"/>
      <point x="308" y="536.324" type="line"/>
      <point x="308" y="700" type="line"/>
      <point x="323" y="700" type="line" smooth="yes"/>
      <point x="507.462" y="700"/>
      <point x="565" y="562.05"/>
      <point x="565" y="496.712" type="curve" smooth="yes"/>
      <point x="565" y="203.288" type="line" smooth="yes"/>
      <point x="565" y="51.1436"/>
      <point x="417.768" y="0"/>
    </contour>
    <contour>
      <point x="270.667" y="700" type="line"/>
      <point x="270.667" y="435" type="line"/>
      <point x="352.439" y="435" type="line"/>
      <point x="352.439" y="277" type="line"/>
      <point x="270.667" y="277" type="line"/>
      <point x="270.667" y="0" type="line"/>
      <point x="83" y="0" type="line"/>
      <point x="83" y="277" type="line"/>
      <point x="26" y="277" type="line"/>
      <point x="26" y="435" type="line"/>
      <point x="83" y="435" type="line"/>
      <point x="83" y="700" type="line"/>
    </contour>
  </outline>
</glyph>
<glyph name="Oslash" format="1">
  <advance width="722"/>
  <unicode hex="00D8"/>
  <outline>
    <contour>
      <point x="579.314" y="618.54" type="curve"/>
      <point x="636.25" y="665.976" type="line"/>
      <point x="734.179" y="559.972" type="line"/>
      <point x="622.109" y="462.59" type="line"/>
      <point x="652.109" y="201.284" type="line" smooth="yes"/>
      <point x="652.109" y="52.1641"/>
      <point x="475.505" y="-5"/>
      <point x="406.526" y="-5" type="curve" smooth="yes"/>
      <point x="389.986" y="-5" type="line"/>
      <point x="389.986" y="167" type="line"/>
      <point x="405.793" y="167" type="line"/>
      <point x="416.049" y="168.671"/>
      <point x="450.459" y="180.225"/>
      <point x="451.109" y="210.163" type="curve"/>
      <point x="451.109" y="328.229" type="line"/>
      <point x="302.004" y="205.528" type="line"/>
      <point x="305.473" y="178.211"/>
      <point x="338.039" y="168.405"/>
      <point x="346.612" y="167" type="curve"/>
      <point x="362.418" y="167" type="line"/>
      <point x="362.418" y="-5" type="line"/>
      <point x="345.878" y="-5" type="line" smooth="yes"/>
      <point x="295.916" y="-5"/>
      <point x="209.47" y="21.1621"/>
      <point x="156.46" y="82.6836" type="curve"/>
      <point x="97.8809" y="35.0791" type="line"/>
      <point x="0" y="141.032" type="line"/>
      <point x="114.109" y="239.364" type="line"/>
      <point x="114.109" y="516.946" type="line" smooth="yes"/>
      <point x="114.109" y="581.412"/>
      <point x="183.974" y="705"/>
      <point x="333.071" y="705" type="curve" smooth="yes"/>
      <point x="349.425" y="705" type="line"/>
      <point x="349.425" y="534.322" type="line"/>
      <point x="333.426" y="534.004" type="line" smooth="yes"/>
      <point x="299.681" y="533.331"/>
      <point x="289.382" y="499.612"/>
      <point x="288.369" y="492.521" type="curve"/>
      <point x="288.369" y="374.62" type="line"/>
      <point x="435.868" y="496.05" type="line"/>
      <point x="432.119" y="509.831"/>
      <point x="420.345" y="533.431"/>
      <point x="391.591" y="534.004" type="curve" smooth="yes"/>
      <point x="375.592" y="534.322" type="line"/>
      <point x="375.592" y="705" type="line"/>
      <point x="391.946" y="705" type="line" smooth="yes"/>
      <point x="479.438" y="705"/>
      <point x="541.917" y="664.314"/>
    </contour>
  </outline>
</glyph>
<glyph name="germandbls" format="1">
  <advance width="612"/>
  <unicode hex="00DF"/>
  <outline>
    <contour>
      <point x="210" y="486.737" type="curve" smooth="yes"/>
      <point x="205.455" y="0" type="line"/>
      <point x="26" y="0" type="line"/>
      <point x="26" y="452.832" type="line"/>
      <point x="26.9609" y="521.07"/>
      <point x="16.5" y="705"/>
      <point x="271" y="705" type="curve" smooth="yes"/>
      <point x="453.518" y="705"/>
      <point x="466" y="560.864"/>
      <point x="466" y="503" type="curve" smooth="yes"/>
      <point x="466" y="381.981" type="line"/>
      <point x="388.276" y="383.128" type="line"/>
      <point x="366.602" y="378.423"/>
      <point x="365" y="359.898"/>
      <point x="365" y="354.837" type="curve" smooth="yes"/>
      <point x="365" y="352.223"/>
      <point x="360.763" y="334.915"/>
      <point x="440.786" y="309.742" type="curve"/>
      <point x="494.033" y="292.657"/>
      <point x="586" y="251.299"/>
      <point x="586" y="165.15" type="curve" smooth="yes"/>
      <point x="586" y="59.2344"/>
      <point x="501.334" y="0"/>
      <point x="372" y="0" type="curve" smooth="yes"/>
      <point x="229" y="0" type="line"/>
      <point x="229" y="139" type="line"/>
      <point x="371.467" y="139" type="line"/>
      <point x="398.743" y="140.265"/>
      <point x="439" y="148.673"/>
      <point x="439" y="165.788" type="curve" smooth="yes"/>
      <point x="439" y="194.31"/>
      <point x="381.091" y="193.175"/>
      <point x="314.243" y="222.695" type="curve"/>
      <point x="263.127" y="246.304"/>
      <point x="221" y="284.305"/>
      <point x="221" y="367.157" type="curve" smooth="yes"/>
      <point x="221" y="439.558"/>
      <point x="273.831" y="482.585"/>
      <point x="324" y="502.248" type="curve"/>
      <point x="324" y="504" type="line" smooth="yes"/>
      <point x="324" y="546.958"/>
      <point x="299.758" y="556"/>
      <point x="270" y="556" type="curve" smooth="yes"/>
      <point x="229.281" y="556"/>
      <point x="210" y="536.586"/>
    </contour>
  </outline>
</glyph>
<glyph name="igrave" format="1">
  <advance width="229"/>
  <unicode hex="00EC"/>
  <outline>
    <contour>
      <point x="199.985" y="516" type="line"/>
      <point x="199.985" y="0" type="line"/>
      <point x="47.9854" y="0" type="line"/>
      <point x="47.9854" y="516" type="line"/>
    </contour>
    <contour>
      <point x="186.953" y="547" type="line"/>
      <point x="68.6055" y="547" type="line"/>
      <point x="-20" y="729" type="line"/>
      <point x="143.848" y="729" type="line"/>
    </contour>
  </outline>
</glyph>
<glyph name="iacute" format="1">
  <advance width="229"/>
  <unicode hex="00ED"/>
  <outline>
    <contour>
      <point x="191" y="516" type="line"/>
      <point x="191" y="0" type="line"/>
      <point x="39" y="0" type="line"/>
      <point x="39" y="516" type="line"/>
    </contour>
    <contour>
      <point x="256.985" y="729" type="line"/>
      <point x="168.381" y="547" type="line"/>
      <point x="50.0322" y="547" type="line"/>
      <point x="93.1377" y="729" type="line"/>
    </contour>
  </outline>
</glyph>
<glyph name="eth" format="1">
  <advance width="480"/>
  <unicode hex="00F0"/>
  <outline>
    <contour>
      <point x="28" y="147.39" type="curve" smooth="yes"/>
      <point x="28" y="369.501" type="line" smooth="yes"/>
      <point x="28" y="419.163"/>
      <point x="84.2012" y="516"/>
      <point x="219.706" y="516" type="curve" smooth="yes"/>
      <point x="235.167" y="516" type="line"/>
      <point x="202.383" y="592.732" type="line"/>
      <point x="253.856" y="604.906" type="line"/>
      <point x="243.713" y="609.65"/>
      <point x="232.894" y="613.819"/>
      <point x="219.426" y="618.345" type="curve" smooth="yes"/>
      <point x="207.529" y="622.341" type="line"/>
      <point x="207.529" y="717.112" type="line"/>
      <point x="231.605" y="713.737" type="line" smooth="yes"/>
      <point x="296.668" y="702.951"/>
      <point x="344.191" y="679.883"/>
      <point x="379.597" y="643.22" type="curve"/>
      <point x="434.841" y="660.898" type="line"/>
      <point x="461.719" y="574.291" type="line"/>
      <point x="429.341" y="563.815" type="line"/>
      <point x="445.345" y="525.09"/>
      <point x="452" y="483.755"/>
      <point x="452" y="433.9" type="curve" smooth="yes"/>
      <point x="452" y="148.082" type="line" smooth="yes"/>
      <point x="452" y="98.8232"/>
      <point x="398.446" y="-1"/>
      <point x="284" y="-1" type="curve" smooth="yes"/>
      <point x="263" y="-1" type="line"/>
      <point x="263" y="147" type="line"/>
      <point x="283.758" y="147" type="line" smooth="yes"/>
      <point x="303.568" y="147.562"/>
      <point x="305" y="158.085"/>
      <point x="305" y="164.609" type="curve" smooth="yes"/>
      <point x="305" y="350.391" type="line" smooth="yes"/>
      <point x="305" y="361.676"/>
      <point x="304.282" y="368"/>
      <point x="284" y="368" type="curve" smooth="yes"/>
      <point x="263" y="368" type="line"/>
      <point x="263" y="512.733" type="line"/>
      <point x="248.118" y="509.452" type="line"/>
      <point x="248.118" y="368" type="line"/>
      <point x="219.706" y="368" type="line" smooth="yes"/>
      <point x="190.201" y="368"/>
      <point x="188.588" y="356.078"/>
      <point x="188.588" y="350.391" type="curve" smooth="yes"/>
      <point x="188.588" y="166.37" type="line" smooth="yes"/>
      <point x="188.588" y="154.025"/>
      <point x="191.856" y="147"/>
      <point x="219.706" y="147" type="curve" smooth="yes"/>
      <point x="248.118" y="147" type="line"/>
      <point x="248.118" y="-1" type="line"/>
      <point x="219.706" y="-1" type="line" smooth="yes"/>
      <point x="82.8809" y="-1"/>
      <point x="28" y="98.9678"/>
    </contour>
    <contour>
      <point x="300.042" y="523.78" type="curve" smooth="yes"/>
      <point x="273.954" y="516" type="line"/>
      <point x="284" y="516" type="line" smooth="yes"/>
      <point x="289.466" y="516"/>
      <point x="297.148" y="515.611"/>
      <point x="301.015" y="515.243" type="curve"/>
      <point x="300.498" y="520.05"/>
      <point x="300.374" y="521.067"/>
    </contour>
  </outline>
</glyph>
<glyph name="divide" format="1">
  <advance width="710"/>
  <unicode hex="00F7"/>
  <outline>
    <contour>
      <point x="100" y="370" type="line"/>
      <point x="610" y="370" type="line"/>
      <point x="610" y="213" type="line"/>
      <point x="100" y="213" type="line"/>
    </contour>
    <component base="period" xOffset="196" yOffset="415"/>
    <component base="period" xOffset="196" yOffset="62"/>
  </outline>
</glyph>
<glyph name="florin" format="1">
  <advance width="442"/>
  <unicode hex="0192"/>
  <outline>
    <contour>
      <point x="145.345" y="516" type="line"/>
      <point x="145.345" y="537" type="line" smooth="yes"/>
      <point x="145.345" y="589.069"/>
      <point x="200.81" y="694.898"/>
      <point x="344.272" y="696" type="curve"/>
      <point x="424.201" y="696" type="line"/>
      <point x="390.277" y="549" type="line"/>
      <point x="345.613" y="549" type="line"/>
      <point x="330.814" y="548.472"/>
      <point x="328.013" y="538.898"/>
      <point x="327.345" y="536.125" type="curve"/>
      <point x="327.345" y="515.229" type="line"/>
      <point x="393.345" y="516.229" type="line"/>
      <point x="393.345" y="370" type="line"/>
      <point x="327.345" y="370" type="line"/>
      <point x="327.345" y="-15" type="line" smooth="yes"/>
      <point x="327.345" y="-83.8223"/>
      <point x="249.056" y="-168"/>
      <point x="128.345" y="-168" type="curve" smooth="yes"/>
      <point x="26" y="-168" type="line"/>
      <point x="60.7139" y="-33" type="line"/>
      <point x="127.077" y="-33" type="line"/>
      <point x="141.876" y="-32.4717"/>
      <point x="144.678" y="-22.8984"/>
      <point x="145.345" y="-20.125" type="curve"/>
      <point x="145.345" y="370" type="line"/>
      <point x="82.3447" y="370" type="line"/>
      <point x="82.3447" y="516" type="line"/>
    </contour>
  </outline>
</glyph>
<glyph name="ring" format="1">
  <advance width="244"/>
  <unicode hex="02DA"/>
  <outline>
    <contour>
      <point x="105" y="526" type="curve" smooth="yes"/>
      <point x="105" y="516.173"/>
      <point x="112.178" y="509"/>
      <point x="122" y="509" type="curve" smooth="yes"/>
      <point x="131.827" y="509"/>
      <point x="139" y="516.178"/>
      <point x="139" y="526" type="curve" smooth="yes"/>
      <point x="139" y="535.827"/>
      <point x="131.822" y="543"/>
      <point x="122" y="543" type="curve" smooth="yes"/>
      <point x="112.173" y="543"/>
      <point x="105" y="535.822"/>
    </contour>
    <contour>
      <point x="11" y="526" type="curve" smooth="yes"/>
      <point x="11" y="587.284"/>
      <point x="60.7157" y="637"/>
      <point x="122" y="637" type="curve" smooth="yes"/>
      <point x="183.284" y="637"/>
      <point x="233" y="587.284"/>
      <point x="233" y="526" type="curve" smooth="yes"/>
      <point x="233" y="464.716"/>
      <point x="183.284" y="415"/>
      <point x="122" y="415" type="curve" smooth="yes"/>
      <point x="60.7157" y="415"/>
      <point x="11" y="464.716"/>
    </contour>
  </outline>
</glyph>
<glyph name="endash" format="1">
  <advance width="532"/>
  <unicode hex="2013"/>
  <outline>
    <contour>
      <point x="521" y="372" type="line"/>
      <point x="521" y="215" type="line"/>
      <point x="11" y="215" type="line"/>
      <point x="11" y="372" type="line"/>
    </contour>
  </outline>
</glyph>
<glyph name="perthousand" format="1">
  <advance width="897"/>
  <unicode hex="2030"/>
  <outline>
    <contour>
      <point x="776.976" y="366.968" type="line" smooth="yes"/>
      <point x="833.89" y="363.256"/>
      <point x="887" y="310.263"/>
      <point x="887" y="178" type="curve" smooth="yes"/>
      <point x="887" y="23.5387"/>
      <point x="821.18" y="-12.4271"/>
      <point x="777.881" y="-14.9741" type="curve" smooth="yes"/>
      <point x="777.441" y="-15" type="line"/>
      <point x="762" y="-15" type="line"/>
      <point x="760" y="-15" type="line"/>
      <point x="744.559" y="-15" type="line"/>
      <point x="744.119" y="-14.9741" type="line" smooth="yes"/>
      <point x="700.694" y="-12.4197"/>
      <point x="636" y="23.6905"/>
      <point x="636" y="178" type="curve" smooth="yes"/>
      <point x="636" y="309.068"/>
      <point x="687.878" y="363.241"/>
      <point x="745.024" y="366.968" type="curve" smooth="yes"/>
      <point x="745.511" y="367" type="line"/>
      <point x="759" y="367" type="line"/>
      <point x="763" y="367" type="line"/>
      <point x="776.489" y="367" type="line"/>
    </contour>
    <contour>
      <point x="518.976" y="366.968" type="line" smooth="yes"/>
      <point x="575.89" y="363.256"/>
      <point x="629" y="310.263"/>
      <point x="629" y="178" type="curve" smooth="yes"/>
      <point x="629" y="23.5387"/>
      <point x="563.18" y="-12.4271"/>
      <point x="519.881" y="-14.9741" type="curve" smooth="yes"/>
      <point x="519.441" y="-15" type="line"/>
      <point x="504" y="-15" type="line"/>
      <point x="502" y="-15" type="line"/>
      <point x="486.559" y="-15" type="line"/>
      <point x="486.119" y="-14.9741" type="line" smooth="yes"/>
      <point x="442.694" y="-12.4197"/>
      <point x="378" y="23.6905"/>
      <point x="378" y="178" type="curve" smooth="yes"/>
      <point x="378" y="309.068"/>
      <point x="429.878" y="363.241"/>
      <point x="487.024" y="366.968" type="curve" smooth="yes"/>
      <point x="487.511" y="367" type="line"/>
      <point x="501" y="367" type="line"/>
      <point x="505" y="367" type="line"/>
      <point x="518.489" y="367" type="line"/>
    </contour>
    <contour>
      <point x="157.802" y="716.411" type="line"/>
      <point x="213.1" y="709.349"/>
      <point x="261" y="655.219"/>
      <point x="261" y="528" type="curve" smooth="yes"/>
      <point x="261" y="377.284"/>
      <point x="199.195" y="340.364"/>
      <point x="156.075" y="336.267" type="curve"/>
      <point x="137" y="326.729" type="line"/>
      <point x="137" y="325.729" type="line"/>
      <point x="136" y="326.229" type="line"/>
      <point x="135" y="325.729" type="line"/>
      <point x="135" y="326.729" type="line"/>
      <point x="115.925" y="336.267" type="line"/>
      <point x="71.8362" y="340.456"/>
      <point x="11" y="378.081"/>
      <point x="11" y="528" type="curve" smooth="yes"/>
      <point x="11" y="655.066"/>
      <point x="59.7181" y="709.369"/>
      <point x="114.194" y="716.407" type="curve"/>
      <point x="135" y="737.213" type="line"/>
      <point x="135" y="739.213" type="line"/>
      <point x="136" y="738.213" type="line"/>
      <point x="137" y="739.213" type="line"/>
      <point x="137" y="737.213" type="line"/>
    </contour>
    <contour>
      <point x="40.1817" y="-15" type="line"/>
      <point x="488.61" y="715" type="line"/>
      <point x="596.59" y="715" type="line"/>
      <point x="155.462" y="-15" type="line"/>
    </contour>
    <contour>
      <point x="759" y="272" type="line"/>
      <point x="748.326" y="272" type="line" smooth="yes"/>
      <point x="740.138" y="268.089"/>
      <point x="734" y="234.156"/>
      <point x="734" y="201" type="curve" smooth="yes"/>
      <point x="734" y="171" type="line" smooth="yes"/>
      <point x="734" y="123.437"/>
      <point x="739.871" y="84.4057"/>
      <point x="748.297" y="80" type="curve"/>
      <point x="760" y="80" type="line"/>
      <point x="762" y="80" type="line"/>
      <point x="773.715" y="80" type="line"/>
      <point x="782.643" y="84.6438"/>
      <point x="789" y="124.388"/>
      <point x="789" y="171" type="curve" smooth="yes"/>
      <point x="789" y="201" type="line" smooth="yes"/>
      <point x="789" y="234.533"/>
      <point x="781.686" y="268.196"/>
      <point x="773.684" y="272" type="curve" smooth="yes"/>
      <point x="763" y="272" type="line"/>
    </contour>
    <contour>
      <point x="501" y="272" type="line"/>
      <point x="490.326" y="272" type="line" smooth="yes"/>
      <point x="482.138" y="268.089"/>
      <point x="476" y="234.156"/>
      <point x="476" y="201" type="curve" smooth="yes"/>
      <point x="476" y="171" type="line" smooth="yes"/>
      <point x="476" y="123.437"/>
      <point x="481.871" y="84.4057"/>
      <point x="490.297" y="80" type="curve"/>
      <point x="502" y="80" type="line"/>
      <point x="504" y="80" type="line"/>
      <point x="515.715" y="80" type="line"/>
      <point x="524.643" y="84.6438"/>
      <point x="531" y="124.388"/>
      <point x="531" y="171" type="curve" smooth="yes"/>
      <point x="531" y="201" type="line" smooth="yes"/>
      <point x="531" y="234.533"/>
      <point x="523.686" y="268.196"/>
      <point x="515.684" y="272" type="curve" smooth="yes"/>
      <point x="505" y="272" type="line"/>
    </contour>
    <contour>
      <point x="135" y="622" type="line"/>
      <point x="123.326" y="622" type="line" smooth="yes"/>
      <point x="115.138" y="618.089"/>
      <point x="109" y="584.156"/>
      <point x="109" y="551" type="curve" smooth="yes"/>
      <point x="109" y="522" type="line" smooth="yes"/>
      <point x="109" y="474.4"/>
      <point x="114.904" y="434.423"/>
      <point x="123.319" y="430" type="curve"/>
      <point x="135" y="430" type="line"/>
      <point x="137" y="430" type="line"/>
      <point x="148.681" y="430" type="line"/>
      <point x="157.262" y="434.51"/>
      <point x="163" y="475.022"/>
      <point x="163" y="522" type="curve" smooth="yes"/>
      <point x="163" y="551" type="line" smooth="yes"/>
      <point x="163" y="584.922"/>
      <point x="156.388" y="618.315"/>
      <point x="148.674" y="622" type="curve" smooth="yes"/>
      <point x="137" y="622" type="line"/>
    </contour>
  </outline>
</glyph>
<glyph name="guilsinglleft" format="1">
  <advance width="338"/>
  <unicode hex="2039"/>
  <outline>
    <contour>
      <point x="148.72" y="515" type="line"/>
      <point x="339.174" y="515" type="line"/>
      <point x="198.668" y="291.906" type="line"/>
      <point x="338.835" y="64" type="line"/>
      <point x="148.615" y="64" type="line"/>
      <point x="8.33225" y="292.094" type="line"/>
    </contour>
  </outline>
</glyph>
<glyph name="guilsinglright" format="1">
  <advance width="338"/>
  <unicode hex="203A"/>
  <outline>
    <contour>
      <point x="189.28" y="515" type="line"/>
      <point x="329.668" y="292.094" type="line"/>
      <point x="189.385" y="64" type="line"/>
      <point x="-0.835211" y="64" type="line"/>
      <point x="139.332" y="291.906" type="line"/>
      <point x="-1.17416" y="515" type="line"/>
    </contour>
  </outline>
</glyph>
<glyph name="fi" format="1">
  <advance width="554"/>
  <unicode hex="FB01"/>
  <outline>
    <contour>
      <point x="440" y="703" type="curve" smooth="yes"/>
      <point x="488.328" y="703"/>
      <point x="528" y="663.328"/>
      <point x="528" y="615" type="curve" smooth="yes"/>
      <point x="528" y="567.51"/>
      <point x="488.233" y="528"/>
      <point x="440" y="528" type="curve" smooth="yes"/>
      <point x="391.767" y="528"/>
      <point x="348.855" y="567.51"/>
      <point x="348.855" y="615" type="curve" smooth="yes"/>
      <point x="348.855" y="663.328"/>
      <point x="391.672" y="703"/>
    </contour>
    <contour>
      <point x="89" y="516" type="line"/>
      <point x="89" y="537" type="line" smooth="yes"/>
      <point x="89" y="589.069"/>
      <point x="144.465" y="694.898"/>
      <point x="269.28" y="696" type="curve"/>
      <point x="367.855" y="696" type="line"/>
      <point x="326.416" y="549" type="line"/>
      <point x="270.945" y="549" type="line"/>
      <point x="252.567" y="548.472"/>
      <point x="249.088" y="538.898"/>
      <point x="248.258" y="536.125" type="curve"/>
      <point x="248.258" y="516" type="line"/>
      <point x="517" y="516" type="line"/>
      <point x="517" y="0" type="line"/>
      <point x="365" y="0" type="line"/>
      <point x="365" y="370" type="line"/>
      <point x="248.258" y="370" type="line"/>
      <point x="248.258" y="0" type="line"/>
      <point x="89" y="0" type="line"/>
      <point x="89" y="370" type="line"/>
      <point x="26" y="370" type="line"/>
      <point x="26" y="516" type="line"/>
    </contour>
  </outline>
</glyph>
<glyph name="quotedbl.alt" format="1">
  <advance width="359"/>
  <outline>
    <contour>
      <point x="168" y="461" type="line"/>
      <point x="11" y="461" type="line"/>
      <point x="11" y="715" type="line"/>
      <point x="168" y="715" type="line"/>
    </contour>
    <contour>
      <point x="348" y="461" type="line"/>
      <point x="191" y="461" type="line"/>
      <point x="191" y="715" type="line"/>
      <point x="348" y="715" type="line"/>
    </contour>
  </outline>
</glyph>
